<svg width="313" height="136" viewBox="0 0 313 136" fill="none" xmlns="http://www.w3.org/2000/svg">
<path d="M204.055 55.1213V113.467C204.055 113.755 203.879 113.888 203.662 113.763L128.367 70.4479C128.15 70.3229 127.974 69.9876 127.974 69.6994V11.5703" fill="#EAFCFF"/>
<path d="M198.2 104.712C198.166 99.4598 198.174 60.9653 198.174 60.9653L199.684 60.3067C199.835 60.2194 200.014 60.3324 200.014 60.534L199.958 103.488C199.958 103.69 198.596 104.535 198.413 104.643C198.413 104.643 198.201 104.767 198.2 104.712Z" fill="#E8E8E8"/>
<path d="M198.303 61.246L198.238 61.1386L171.611 46.0111L171.38 46.1442C171.38 46.1442 171.426 45.9747 171.493 45.9081C171.552 45.8497 172.846 45.144 172.846 45.144C173.021 45.0435 173.257 45.2105 173.408 45.2978L199.837 60.2633C199.891 60.2941 200.018 60.3688 200.014 60.5308C200.014 60.5308 200.006 60.5446 199.957 60.5641L198.303 61.246Z" fill="url(#paint0_linear)"/>
<path d="M198.075 104.687L171.674 89.7367C171.502 89.6375 171.363 89.3725 171.363 89.144V46.268C171.363 46.0394 171.502 45.9346 171.674 46.0331L198.075 60.983C198.246 61.0822 198.385 61.3472 198.385 61.5764V104.452C198.386 104.681 198.246 104.786 198.075 104.687Z" fill="white"/>
<path d="M167.242 87.3589C167.208 82.1071 167.226 43.612 167.226 43.612L168.896 42.7926C169.263 42.6005 169.227 42.8184 169.227 43.0199L169.17 85.9744C169.17 86.176 167.564 87.0858 167.453 87.2271C167.453 87.2265 167.243 87.4136 167.242 87.3589Z" fill="#E8E8E8"/>
<path d="M167.354 43.8946L167.289 43.7872L131.299 22.925L131.068 23.0581C131.068 23.0581 131.115 22.8886 131.181 22.822C131.24 22.7636 132.806 21.9153 132.806 21.9153C132.981 21.8149 133.107 21.8036 133.258 21.8908L169.05 42.5917C169.104 42.6224 169.231 42.6972 169.227 42.8592C169.227 42.8592 169.219 42.873 169.17 42.8924L167.354 43.8946Z" fill="url(#paint1_linear)"/>
<path d="M167.126 87.3357L131.362 66.6512C131.19 66.552 131.051 66.287 131.051 66.0584V23.1818C131.051 22.9532 131.19 22.8484 131.362 22.947L167.126 43.6315C167.298 43.7307 167.437 43.9957 167.437 44.2248V87.1009C167.437 87.3294 167.298 87.4343 167.126 87.3357Z" fill="white"/>
<path d="M151.919 51.7429L164.558 59.0272C164.783 59.1572 164.984 58.987 165.007 58.6486C165.029 58.3095 164.866 57.9296 164.641 57.7997L152.002 50.5153C151.777 50.386 151.576 50.5555 151.553 50.8946C151.529 51.233 151.693 51.6129 151.919 51.7429Z" fill="#A4D4FC"/>
<path d="M151.675 55.3523L164.314 62.6366C164.54 62.7666 164.741 62.5964 164.764 62.258C164.786 61.9189 164.623 61.539 164.397 61.409L151.758 54.1247C151.534 53.9953 151.332 54.1649 151.31 54.5039C151.287 54.843 151.45 55.2229 151.675 55.3523Z" fill="#A4D4FC"/>
<path d="M141.105 31.2782C141.105 31.2782 137.616 29.1214 136.76 33.8953C136.481 35.45 137.596 37.2973 136.934 38.2141C136.272 39.1308 134.252 39.4033 134.879 41.5721C135.506 43.7415 133.105 44.0781 134.183 47.1511C135.263 50.2297 146.996 56.4177 147.936 55.3829C148.877 54.3488 148.556 51.1697 147.696 49.4228C146.881 47.7664 147.384 45.9964 147.555 45.1669C147.905 43.4703 146.825 41.7354 146.164 40.4268C145.502 39.1195 145.311 33.7723 141.105 31.2782Z" fill="#3D3300"/>
<path d="M137.13 42.6124C137.412 42.5622 137.715 42.566 138.033 42.6237L139.601 42.8994L139.723 42.9214L139.772 42.9295L139.815 42.9377L141.293 43.1989L142.779 44.471V44.6418C142.776 44.6406 142.776 44.6443 142.772 44.6425L142.852 44.7216L142.864 44.7323L143.079 44.9413L144.551 46.3811C144.888 46.7095 145.206 47.0762 145.5 47.4743C146.9 49.3405 147.8 51.8565 147.8 54.0655V56.5457C147.8 56.8195 147.634 56.945 147.427 56.8264L135.159 49.7561C134.953 49.6375 134.786 49.3197 134.786 49.046V46.5657C134.787 44.331 135.706 42.8429 137.13 42.6124Z" fill="url(#paint2_linear)"/>
<path d="M137.679 36.2727C137.724 35.7999 138.088 36.0962 138.187 36.1854C138.177 36.0265 138.171 35.8683 138.171 35.7113C138.171 33.0785 139.569 31.7499 141.294 32.7438C143.019 33.7378 144.417 36.6777 144.417 39.3105C144.417 39.4687 144.411 39.6213 144.402 39.7701C144.479 39.7865 144.873 39.8982 144.919 40.4451C144.97 41.0523 144.281 41.8234 144.001 41.451C144 41.4498 143.999 41.4479 143.998 41.4466C143.709 42.0438 143.288 42.4331 142.78 42.5599V44.6389C142.777 44.637 142.777 44.6414 142.773 44.6395C141.892 44.983 140.698 44.2948 139.816 42.9348C139.813 42.9335 139.813 42.9291 139.809 42.9272V40.8482C139.302 40.1362 138.882 39.264 138.594 38.3366C138.309 38.368 137.629 36.8183 137.679 36.2727Z" fill="#FFD199"/>
<path d="M140.457 33.6957C140.457 33.6957 141.476 36.3455 143.013 38.2776C143.343 38.6932 144.402 39.7701 144.402 39.7701C144.402 39.7701 145.824 38.4389 144.937 36.2771C143.796 33.4948 142.506 32.0594 141.362 31.4246C139.891 30.6083 138.658 31.115 138.287 31.7863C137.627 32.978 138.173 36.5257 138.173 36.5257C138.173 36.5257 138.384 35.197 138.604 34.6652C138.823 34.1346 140.457 33.6957 140.457 33.6957Z" fill="#3D3300"/>
<path d="M152.364 43.5129C152.291 43.4828 152.319 43.5111 151.687 43.8652C151.771 43.8169 152.603 44.2633 152.684 44.2168L153.292 43.8639C153.238 43.8953 153.214 43.8508 152.364 43.5129Z" fill="#FF8C00"/>
<path d="M154.694 45.793C153.887 46.419 153.998 45.6661 154.195 47.3131C154.202 47.3652 154.188 47.4004 154.162 47.4155C154.759 47.0444 154.822 47.0934 154.804 46.9602C154.803 46.9602 154.615 45.8394 154.694 45.793Z" fill="#FF8C00"/>
<path d="M154.302 44.4109C153.726 42.8286 154.038 42.9981 153.116 43.5017C153.289 43.4013 153.395 43.945 153.694 44.7644C153.782 45.0282 155.05 45.6228 154.71 45.8105L155.318 45.4577C155.651 45.2724 154.391 44.6753 154.302 44.4109Z" fill="#FF8C00"/>
<path d="M153.312 43.6516C153.93 45.3821 153.431 44.5232 154.642 45.5303C155.115 45.8807 154.018 45.9975 154.051 46.2486C154.106 46.9532 154.327 47.5534 154.073 47.4071C153.951 47.3368 153.272 46.3843 153.137 46.388C151.86 46.4119 152.223 46.5526 152.341 45.2635C152.36 45.146 152.285 45.1128 151.688 44.0679C151.405 43.5863 152.333 44.1414 152.614 44.2186C152.729 44.2645 152.701 44.1583 153.093 43.5248C153.115 43.4859 153.272 43.5336 153.312 43.6516Z" fill="#FFC033"/>
<path d="M157.421 46.6526C157.348 46.6225 157.376 46.6507 156.744 47.0049C156.827 46.9565 157.66 47.4029 157.741 47.3565L158.349 47.0036C158.294 47.035 158.27 46.9904 157.421 46.6526Z" fill="#FF8C00"/>
<path d="M159.751 48.9326C158.944 49.5586 159.055 48.8058 159.252 50.4528C159.259 50.5049 159.244 50.5401 159.218 50.5551C159.816 50.184 159.878 50.233 159.861 50.0999C159.86 50.0999 159.671 48.9791 159.751 48.9326Z" fill="#FF8C00"/>
<path d="M159.358 47.5506C158.783 45.9683 159.095 46.1378 158.172 46.6414C158.345 46.5409 158.452 47.0847 158.75 47.9041C158.839 48.1678 160.107 48.7624 159.766 48.9502L160.374 48.5973C160.708 48.4121 159.447 47.8149 159.358 47.5506Z" fill="#FF8C00"/>
<path d="M158.369 46.7915C158.987 48.522 158.488 47.663 159.698 48.6702C160.172 49.0206 159.075 49.1374 159.108 49.3885C159.162 50.093 159.383 50.6933 159.13 50.547C159.007 50.4767 158.328 49.5242 158.194 49.5279C156.917 49.5518 157.279 49.6924 157.398 48.4034C157.417 48.2859 157.342 48.2527 156.744 47.2078C156.461 46.7262 157.389 47.2813 157.671 47.3585C157.786 47.4044 157.758 47.2982 158.15 46.6647C158.172 46.6257 158.328 46.6735 158.369 46.7915Z" fill="#FFC033"/>
<path d="M162.478 49.1641C162.405 49.1339 162.433 49.1622 161.801 49.5163C161.884 49.468 162.717 49.9144 162.798 49.8679L163.406 49.5151C163.351 49.5465 163.327 49.5019 162.478 49.1641Z" fill="#FF8C00"/>
<path d="M164.807 51.4441C164 52.0701 164.111 51.3173 164.308 52.9643C164.315 53.0164 164.3 53.0515 164.275 53.0666C164.872 52.6955 164.934 52.7445 164.917 52.6114C164.916 52.6114 164.728 51.4906 164.807 51.4441Z" fill="#FF8C00"/>
<path d="M164.415 50.0621C163.84 48.4797 164.152 48.6493 163.229 49.1529C163.402 49.0524 163.509 49.5961 163.807 50.4156C163.896 50.6793 165.164 51.2739 164.823 51.4617L165.431 51.1088C165.765 50.9235 164.505 50.3264 164.415 50.0621Z" fill="#FF8C00"/>
<path d="M163.426 49.303C164.044 51.0335 163.545 50.1745 164.756 51.1817C165.229 51.5321 164.132 51.6489 164.165 51.9C164.22 52.6045 164.44 53.2048 164.187 53.0585C164.064 52.9882 163.385 52.0356 163.251 52.0394C161.974 52.0633 162.336 52.2039 162.455 50.9148C162.474 50.7974 162.399 50.7641 161.802 49.7193C161.519 49.2377 162.446 49.7928 162.728 49.87C162.843 49.9158 162.815 49.8097 163.207 49.1762C163.229 49.1372 163.386 49.1849 163.426 49.303Z" fill="#FFC033"/>
<path d="M179.673 67.1688C177.6 65.9721 175.904 62.7314 175.904 59.9674C175.904 58.4152 175.921 56.9748 176.832 56.723C177.795 56.4574 178.764 56.5936 179.672 57.1179C181.745 58.3147 183.442 61.5554 183.442 64.3194C183.442 66.7827 182.063 67.6536 180.343 67.6159C180.117 67.6115 179.899 67.2994 179.673 67.1688Z" fill="#056600"/>
<path d="M203.985 55.3854V113.759L205.411 112.61C205.655 112.457 205.803 112.19 205.803 111.902V54.0938" fill="#CEEEF4"/>
<path d="M205.804 54.3602V46.8397C205.804 46.7317 205.687 46.6639 205.593 46.7179L203.986 47.7232V55.3831" fill="#000BDE"/>
<path d="M205.663 47.0665L204.013 48.0172C203.867 48.1013 203.687 48.1007 203.542 48.0165L128.09 4.17794C128.072 4.1679 128.072 4.14152 128.09 4.13148L129.901 3.0879C130.176 2.92903 130.517 2.92903 130.792 3.0879L205.664 46.5906C205.846 46.6967 205.846 46.9604 205.663 47.0665Z" fill="url(#paint3_linear)"/>
<path d="M127.975 11.8321V4.43659C127.975 4.14838 128.15 4.01526 128.367 4.14022L203.594 47.4557C203.811 47.5807 203.986 47.916 203.986 48.2042V55.3831" fill="url(#paint4_linear)"/>
<path d="M132.392 11.8666C132.861 11.6672 132.955 10.8343 132.602 10.0062C132.249 9.17813 131.583 8.66844 131.113 8.86779C130.644 9.06715 130.55 9.90006 130.903 10.7282C131.256 11.5562 131.923 12.0659 132.392 11.8666Z" fill="white"/>
<path d="M136.317 14.1283C136.786 13.9289 136.88 13.096 136.527 12.2679C136.174 11.4398 135.507 10.9302 135.038 11.1295C134.569 11.3289 134.475 12.1618 134.828 12.9899C135.181 13.818 135.847 14.3277 136.317 14.1283Z" fill="white"/>
<path d="M140.241 16.3898C140.711 16.1904 140.805 15.3575 140.452 14.5294C140.099 13.7013 139.432 13.1916 138.963 13.391C138.494 13.5903 138.399 14.4233 138.753 15.2513C139.106 16.0794 139.772 16.5891 140.241 16.3898Z" fill="white"/>
<path d="M134.469 54.8841L162.547 71.0659C162.812 71.2185 163.026 71.0565 163.026 70.7042C163.026 70.352 162.812 69.9426 162.547 69.79L134.469 53.6082C134.205 53.4556 133.99 53.6176 133.99 53.9699C133.99 54.3228 134.204 54.7322 134.469 54.8841Z" fill="#A4D4FC"/>
<path d="M134.469 59.1502L162.547 75.332C162.812 75.4846 163.026 75.3226 163.026 74.9703C163.026 74.6181 162.812 74.2087 162.547 74.0561L134.469 57.8743C134.205 57.7217 133.99 57.8837 133.99 58.236C133.99 58.5882 134.204 58.9983 134.469 59.1502Z" fill="#A4D4FC"/>
<path d="M134.469 63.4783L162.547 79.6601C162.812 79.8127 163.026 79.6507 163.026 79.2985C163.026 78.9462 162.812 78.5368 162.547 78.3842L134.469 62.2024C134.205 62.0499 133.99 62.2119 133.99 62.5641C133.99 62.9164 134.204 63.3258 134.469 63.4783Z" fill="#A4D4FC"/>
<path d="M178.785 67.1674C176.712 65.9706 175.016 62.73 175.016 59.9659C175.016 57.2019 176.712 55.9197 178.785 57.1165C180.858 58.3133 182.554 61.5539 182.554 64.3179C182.554 67.0826 180.858 68.3648 178.785 67.1674Z" fill="#46A823"/>
<path d="M191.44 72.6825C189.367 71.4857 187.67 68.2451 187.67 65.4811C187.67 63.9289 187.687 62.4884 188.599 62.2367C189.561 61.9711 190.531 62.1073 191.439 62.6316C193.512 63.8284 195.208 67.069 195.208 69.8331C195.208 72.2964 193.83 73.1673 192.109 73.1296C191.884 73.1252 191.665 72.8125 191.44 72.6825Z" fill="#931032"/>
<path d="M190.551 72.6825C188.479 71.4857 186.782 68.2451 186.782 65.481C186.782 62.717 188.478 61.4348 190.551 62.6316C192.625 63.8284 194.321 67.069 194.321 69.8331C194.321 72.5971 192.625 73.8793 190.551 72.6825Z" fill="#FF4242"/>
<path d="M177.234 61.8493L178.171 63.6721L180.871 61.4644" stroke="white" stroke-width="2" stroke-miterlimit="10" stroke-linecap="round" stroke-linejoin="round"/>
<path d="M191.869 70.1678L189.235 65.1445" stroke="white" stroke-width="2" stroke-miterlimit="10" stroke-linecap="round"/>
<path d="M189.235 68.6514L191.869 66.6641" stroke="white" stroke-width="2" stroke-miterlimit="10" stroke-linecap="round"/>
<path d="M195.339 90.8412L195.096 90.9856C195.096 90.9856 195.375 90.433 195.339 90.1718C195.303 89.9112 195.507 90.7445 195.507 90.7445" fill="#0072E7"/>
<path d="M194.249 91.0791L174.41 79.6455C173.808 79.2989 173.32 78.3684 173.32 77.5678V71.4846C173.32 70.684 173.808 70.3155 174.41 70.6627L194.249 82.0962C194.851 82.4428 195.338 83.3734 195.338 84.174V90.2572C195.339 91.0577 194.851 91.4263 194.249 91.0791Z" fill="url(#paint5_linear)"/>
<path d="M179.655 80.0016V76.3484L180.23 76.6793V78.2258L181.698 79.0722V77.5257L182.274 77.8572V81.5104L181.698 81.1789V79.6267L180.23 78.7803V80.3325L179.655 80.0016Z" fill="white"/>
<path d="M183.472 78.5465V82.1996L182.897 81.8687V78.2156L183.472 78.5465Z" fill="white"/>
<path d="M184.095 82.5602V78.907L185.283 79.592C185.647 79.8018 185.925 80.0699 186.115 80.3945C186.305 80.7198 186.4 81.0557 186.4 81.4048C186.4 81.6535 186.352 81.8387 186.255 81.9611C186.157 82.0836 186.016 82.1338 185.831 82.1131L186.516 83.9566L185.876 83.5874L185.253 81.8908L184.668 81.5536V82.8917L184.095 82.5602ZM184.669 81.0036L185.198 81.3087C185.41 81.4312 185.567 81.4701 185.666 81.4255C185.765 81.3803 185.816 81.2616 185.816 81.0676C185.816 80.8723 185.766 80.6921 185.666 80.527C185.567 80.3625 185.409 80.2174 185.195 80.0944L184.669 79.7911V81.0036Z" fill="white"/>
<path d="M186.93 84.193V80.5398L188.991 81.7278V82.2829L187.503 81.4258V82.4172L188.884 83.2128V83.7679L187.503 82.9723V83.9694L189.003 84.8334V85.3885L186.93 84.193Z" fill="white"/>
<path d="M195.339 90.8399L196.223 90.3306C196.35 90.2572 196.429 90.1209 196.429 89.974V83.1982C196.429 82.8811 196.085 82.6827 195.81 82.8416L195.546 82.9935C195.418 83.067 195.339 83.2033 195.339 83.3502V90.8399Z" fill="#0072E7"/>
<path d="M195.304 82.6351C195.094 82.7563 194.834 82.7563 194.624 82.6351L173.752 70.5781L174.502 70.1461C174.712 70.0249 174.972 70.0249 175.182 70.1461L195.465 81.8433L195.304 82.6351Z" fill="#0072E7"/>
<path d="M195.339 84.1549C195.339 84.1549 195.244 83.1257 194.273 82.4306C192.998 81.5177 194.969 81.5754 194.969 81.5754C194.969 81.5754 196.428 82.1971 196.428 83.1201C196.429 84.0431 195.339 84.1549 195.339 84.1549Z" fill="#0072E7"/>
<path d="M193.877 62.2123V120.558C193.877 120.846 193.702 120.979 193.485 120.854L118.189 77.5389C117.972 77.4139 117.796 77.0786 117.796 76.7904V18.6606" fill="#EAFCFF"/>
<path d="M188.022 111.802C187.988 106.55 187.996 68.0557 187.996 68.0557L189.506 67.397C189.657 67.3097 189.836 67.4227 189.836 67.6243L189.779 110.579C189.779 110.78 188.417 111.625 188.234 111.734C188.235 111.734 188.022 111.857 188.022 111.802Z" fill="#E8E8E8"/>
<path d="M188.125 68.3363L188.061 68.229L161.434 53.1014L161.202 53.2345C161.202 53.2345 161.249 53.065 161.315 52.9985C161.374 52.9401 162.668 52.2343 162.668 52.2343C162.843 52.1338 163.079 52.3009 163.23 52.3881L189.66 67.3537C189.713 67.3844 189.84 67.4591 189.836 67.6211C189.836 67.6211 189.828 67.635 189.78 67.6544L188.125 68.3363Z" fill="url(#paint6_linear)"/>
<path d="M187.897 111.778L161.496 96.8277C161.325 96.7285 161.186 96.4635 161.186 96.2343V53.3583C161.186 53.1298 161.325 53.0249 161.496 53.1235L187.897 68.0733C188.069 68.1725 188.208 68.4375 188.208 68.6667V111.543C188.208 111.771 188.069 111.876 187.897 111.778Z" fill="white"/>
<path d="M157.064 94.4493C157.03 89.1975 157.048 50.7024 157.048 50.7024L158.719 49.883C159.085 49.6908 159.049 49.9087 159.049 50.1103L158.992 93.0648C158.992 93.2663 157.386 94.1761 157.275 94.3174C157.275 94.3168 157.065 94.5045 157.064 94.4493Z" fill="#E8E8E8"/>
<path d="M157.176 50.9849L157.111 50.8775L121.121 30.0153L120.889 30.1484C120.889 30.1484 120.936 29.9789 121.002 29.9123C121.061 29.854 122.627 29.0057 122.627 29.0057C122.802 28.9052 122.928 28.8939 123.079 28.9812L158.871 49.682C158.925 49.7128 159.052 49.7875 159.048 49.9495C159.048 49.9495 159.04 49.9633 158.992 49.9828L157.176 50.9849Z" fill="url(#paint7_linear)"/>
<path d="M156.949 94.426L121.184 73.7415C121.013 73.6423 120.874 73.3773 120.874 73.1488V30.2721C120.874 30.0436 121.013 29.9387 121.184 30.0373L156.949 50.7218C157.12 50.821 157.259 51.086 157.259 51.3152V94.1912C157.259 94.4197 157.12 94.5246 156.949 94.426Z" fill="white"/>
<path d="M141.741 58.8332L154.38 66.1175C154.605 66.2475 154.806 66.0774 154.829 65.7389C154.852 65.3999 154.688 65.02 154.463 64.89L141.824 57.6057C141.599 57.4763 141.398 57.6458 141.375 57.9849C141.352 58.3233 141.516 58.7039 141.741 58.8332Z" fill="#A4D4FC"/>
<path d="M141.498 62.4426L154.137 69.7269C154.362 69.8569 154.563 69.6867 154.586 69.3483C154.608 69.0092 154.445 68.6293 154.22 68.4994L141.581 61.215C141.356 61.0857 141.155 61.2552 141.132 61.5943C141.109 61.9327 141.273 62.3126 141.498 62.4426Z" fill="#A4D4FC"/>
<path d="M130.927 38.369C130.927 38.369 127.438 36.2122 126.582 40.9862C126.303 42.5409 127.418 44.3882 126.756 45.3049C126.094 46.2216 124.074 46.4942 124.701 48.6629C125.328 50.8324 122.927 51.1689 124.005 54.2419C125.085 57.3205 136.818 63.5086 137.759 62.4738C138.699 61.4396 138.378 58.2605 137.518 56.5137C136.704 54.8573 137.206 53.0872 137.377 52.2577C137.727 50.5611 136.648 48.8262 135.986 47.5176C135.324 46.2097 135.133 40.8625 130.927 38.369Z" fill="#3D3300"/>
<path d="M126.952 49.7037C127.234 49.6535 127.537 49.6573 127.855 49.715L129.423 49.9907L129.545 50.0127L129.594 50.0208L129.637 50.029L131.116 50.2902L132.601 51.5624V51.7331C132.598 51.7319 132.598 51.7357 132.595 51.7338L132.674 51.8129L132.686 51.8236L132.901 52.0327L134.373 53.4724C134.71 53.8008 135.028 54.1675 135.323 54.5656C136.722 56.4318 137.622 58.9478 137.622 61.1568V63.637C137.622 63.9108 137.456 64.0363 137.249 63.9177L124.981 56.8474C124.776 56.7288 124.608 56.411 124.608 56.1373V53.657C124.61 51.4223 125.529 49.9342 126.952 49.7037Z" fill="url(#paint8_linear)"/>
<path d="M127.501 43.364C127.546 42.8912 127.911 43.1876 128.009 43.2767C127.999 43.1179 127.994 42.9596 127.994 42.8026C127.994 40.1698 129.391 38.8412 131.116 39.8352C132.841 40.8291 134.239 43.769 134.239 46.4018C134.239 46.56 134.234 46.7126 134.224 46.8614C134.302 46.8778 134.695 46.9895 134.741 47.5364C134.792 48.1436 134.104 48.9147 133.823 48.5423C133.822 48.5411 133.822 48.5392 133.821 48.5379C133.532 49.1351 133.111 49.5244 132.603 49.6512V51.7302C132.599 51.7283 132.6 51.7327 132.596 51.7309C131.714 52.0743 130.521 51.3861 129.639 50.0261C129.636 50.0248 129.636 50.0204 129.632 50.0185V47.9395C129.125 47.2275 128.705 46.3553 128.416 45.4279C128.131 45.4593 127.451 43.9096 127.501 43.364Z" fill="#FFD199"/>
<path d="M130.28 40.787C130.28 40.787 131.299 43.4368 132.835 45.3689C133.166 45.7845 134.224 46.8614 134.224 46.8614C134.224 46.8614 135.646 45.5302 134.76 43.3684C133.618 40.5861 132.328 39.1507 131.184 38.5159C129.713 37.6996 128.48 38.2063 128.109 38.8776C127.45 40.0693 127.995 43.617 127.995 43.617C127.995 43.617 128.206 42.2884 128.426 41.7565C128.645 41.2259 130.28 40.787 130.28 40.787Z" fill="#3D3300"/>
<path d="M142.187 50.6033C142.113 50.5731 142.141 50.6014 141.509 50.9555C141.593 50.9072 142.425 51.3536 142.506 51.3072L143.115 50.9543C143.06 50.9857 143.036 50.9411 142.187 50.6033Z" fill="#FF8C00"/>
<path d="M144.516 52.884C143.709 53.5101 143.821 52.7572 144.017 54.4042C144.024 54.4563 144.01 54.4915 143.984 54.5065C144.582 54.1354 144.644 54.1844 144.626 54.0513C144.626 54.0513 144.438 52.9299 144.516 52.884Z" fill="#FF8C00"/>
<path d="M144.124 51.5013C143.549 49.9189 143.861 50.0885 142.938 50.5921C143.111 50.4916 143.218 51.0354 143.516 51.8548C143.605 52.1185 144.873 52.7131 144.532 52.9009L145.14 52.548C145.474 52.3628 144.214 51.7656 144.124 51.5013Z" fill="#FF8C00"/>
<path d="M143.135 50.742C143.753 52.4725 143.254 51.6135 144.465 52.6206C144.938 52.971 143.841 53.0878 143.874 53.339C143.929 54.0435 144.149 54.6438 143.896 54.4975C143.773 54.4265 143.094 53.4746 142.96 53.4784C141.683 53.5022 142.045 53.6429 142.164 52.3538C142.183 52.2364 142.108 52.2031 141.511 51.1583C141.228 50.6767 142.155 51.2317 142.437 51.309C142.552 51.3548 142.524 51.2487 142.916 50.6151C142.938 50.5762 143.095 50.6239 143.135 50.742Z" fill="#FFC033"/>
<path d="M147.243 53.7437C147.17 53.7135 147.198 53.7418 146.566 54.0959C146.65 54.0476 147.482 54.494 147.563 54.4475L148.171 54.0947C148.116 54.1261 148.093 54.0815 147.243 53.7437Z" fill="#FF8C00"/>
<path d="M149.573 56.0244C148.766 56.6504 148.877 55.8976 149.074 57.5446C149.081 57.5967 149.067 57.6319 149.041 57.6469C149.638 57.2758 149.701 57.3248 149.683 57.1917C149.682 57.1917 149.494 56.0703 149.573 56.0244Z" fill="#FF8C00"/>
<path d="M149.18 54.6416C148.605 53.0593 148.917 53.2289 147.995 53.7324C148.168 53.632 148.274 54.1757 148.572 54.9952C148.661 55.2589 149.929 55.8535 149.588 56.0413L150.196 55.6884C150.53 55.5031 149.27 54.906 149.18 54.6416Z" fill="#FF8C00"/>
<path d="M148.191 53.8823C148.809 55.6128 148.31 54.7539 149.521 55.761C149.994 56.1114 148.897 56.2282 148.93 56.4794C148.985 57.1839 149.206 57.7842 148.952 57.6378C148.829 57.5669 148.151 56.615 148.016 56.6188C146.739 56.6426 147.101 56.7833 147.22 55.4942C147.239 55.3768 147.164 55.3435 146.567 54.2986C146.284 53.817 147.212 54.3721 147.493 54.4493C147.608 54.4952 147.58 54.3891 147.972 53.7555C147.994 53.7166 148.151 53.7643 148.191 53.8823Z" fill="#FFC033"/>
<path d="M152.3 56.2554C152.226 56.2252 152.255 56.2535 151.623 56.6076C151.706 56.5593 152.538 57.0057 152.62 56.9593L153.228 56.6064C153.173 56.6378 153.149 56.5932 152.3 56.2554Z" fill="#FF8C00"/>
<path d="M154.63 58.5361C153.822 59.1622 153.934 58.4093 154.131 60.0563C154.138 60.1084 154.123 60.1436 154.097 60.1586C154.695 59.7876 154.757 59.8365 154.74 59.7034C154.739 59.7034 154.55 58.582 154.63 58.5361Z" fill="#FF8C00"/>
<path d="M154.237 57.1534C153.661 55.571 153.973 55.7406 153.051 56.2442C153.224 56.1437 153.331 56.6875 153.629 57.5069C153.717 57.7706 154.986 58.3652 154.645 58.553L155.253 58.2001C155.587 58.0149 154.326 57.4177 154.237 57.1534Z" fill="#FF8C00"/>
<path d="M153.248 56.3941C153.866 58.1246 153.366 57.2656 154.577 58.2727C155.051 58.6231 153.954 58.7399 153.987 58.9911C154.041 59.6956 154.262 60.2959 154.009 60.1496C153.886 60.0786 153.207 59.1267 153.073 59.1305C151.796 59.1543 152.158 59.295 152.277 58.0059C152.296 57.8885 152.221 57.8552 151.623 56.8104C151.34 56.3288 152.268 56.8838 152.55 56.9611C152.664 57.0069 152.637 56.9008 153.029 56.2672C153.051 56.2283 153.207 56.276 153.248 56.3941Z" fill="#FFC033"/>
<path d="M169.495 74.2582C167.423 73.0614 165.726 69.8208 165.726 67.0567C165.726 65.5045 165.743 64.0641 166.655 63.8123C167.617 63.5467 168.586 63.683 169.495 64.2073C171.568 65.4041 173.264 68.6447 173.264 71.4088C173.264 73.872 171.886 74.7429 170.165 74.7053C169.939 74.7002 169.721 74.3882 169.495 74.2582Z" fill="#056600"/>
<path d="M193.809 62.4751V120.848L195.234 119.699C195.478 119.547 195.627 119.279 195.627 118.992V61.1841" fill="#CEEEF4"/>
<path d="M195.626 61.4506V53.9308C195.626 53.8228 195.509 53.755 195.415 53.809L193.809 54.8143V62.4741" fill="#000BDE"/>
<path d="M195.485 54.1568L193.835 55.1075C193.689 55.1916 193.509 55.191 193.364 55.1069L117.912 11.2683C117.894 11.2582 117.894 11.2319 117.912 11.2218L119.723 10.1782C119.999 10.0194 120.339 10.0194 120.614 10.1782L195.486 53.6809C195.669 53.7876 195.669 54.0513 195.485 54.1568Z" fill="url(#paint9_linear)"/>
<path d="M117.797 18.9224V11.5269C117.797 11.2387 117.972 11.1056 118.189 11.2305L193.416 54.5461C193.633 54.671 193.808 55.0063 193.808 55.2945V62.4734" fill="url(#paint10_linear)"/>
<path d="M122.215 18.9576C122.684 18.7583 122.778 17.9254 122.425 17.0973C122.072 16.2692 121.405 15.7595 120.936 15.9589C120.467 16.1582 120.373 16.9911 120.726 17.8192C121.079 18.6473 121.745 19.157 122.215 18.9576Z" fill="white"/>
<path d="M126.139 21.2194C126.608 21.02 126.702 20.1871 126.349 19.359C125.996 18.5309 125.33 18.0212 124.86 18.2206C124.391 18.4199 124.297 19.2528 124.65 20.0809C125.003 20.909 125.67 21.4187 126.139 21.2194Z" fill="white"/>
<path d="M130.064 23.4811C130.533 23.2817 130.627 22.4488 130.274 21.6207C129.921 20.7926 129.255 20.2829 128.785 20.4823C128.316 20.6817 128.222 21.5146 128.575 22.3427C128.928 23.1707 129.594 23.6804 130.064 23.4811Z" fill="white"/>
<path d="M124.291 61.9737L152.369 78.1555C152.634 78.3081 152.849 78.1461 152.849 77.7938C152.849 77.4416 152.634 77.0322 152.369 76.8796L124.291 60.6978C124.027 60.5452 123.812 60.7072 123.812 61.0595C123.812 61.4117 124.027 61.8211 124.291 61.9737Z" fill="#A4D4FC"/>
<path d="M124.291 66.2398L152.369 82.4216C152.634 82.5742 152.849 82.4122 152.849 82.0599C152.849 81.7077 152.634 81.2983 152.369 81.1457L124.291 64.9639C124.027 64.8113 123.812 64.9733 123.812 65.3256C123.812 65.6778 124.027 66.0872 124.291 66.2398Z" fill="#A4D4FC"/>
<path d="M124.291 70.5672L152.369 86.749C152.634 86.9016 152.849 86.7396 152.849 86.3873C152.849 86.0351 152.634 85.6257 152.369 85.4731L124.291 69.2913C124.027 69.1387 123.812 69.3007 123.812 69.653C123.812 70.0052 124.027 70.4146 124.291 70.5672Z" fill="#A4D4FC"/>
<path d="M168.608 74.2616C166.534 73.0648 164.838 69.8242 164.838 67.0601C164.838 64.2961 166.534 63.0139 168.608 64.2107C170.68 65.4075 172.377 68.6481 172.377 71.4122C172.376 74.1762 170.68 75.4584 168.608 74.2616Z" fill="#46A823"/>
<path d="M181.262 79.7729C179.189 78.5761 177.493 75.3354 177.493 72.5714C177.493 71.0192 177.51 69.5788 178.421 69.327C179.384 69.0614 180.353 69.1976 181.261 69.7219C183.334 70.9187 185.03 74.1594 185.03 76.9234C185.03 79.3867 183.652 80.2576 181.932 80.2199C181.706 80.2155 181.488 79.9035 181.262 79.7729Z" fill="#931032"/>
<path d="M180.374 79.7728C178.301 78.576 176.605 75.3354 176.605 72.5714C176.605 69.8073 178.301 68.5251 180.374 69.7219C182.447 70.9187 184.143 74.1593 184.143 76.9234C184.143 79.6874 182.447 80.9696 180.374 79.7728Z" fill="#FF4242"/>
<path d="M167.057 68.9396L167.993 70.7624L170.694 68.5547" stroke="white" stroke-width="2" stroke-miterlimit="10" stroke-linecap="round" stroke-linejoin="round"/>
<path d="M181.691 77.2581L179.057 72.2349" stroke="white" stroke-width="2" stroke-miterlimit="10" stroke-linecap="round"/>
<path d="M179.057 75.7417L181.691 73.7544" stroke="white" stroke-width="2" stroke-miterlimit="10" stroke-linecap="round"/>
<path d="M185.161 97.932L184.918 98.0764C184.918 98.0764 185.197 97.5238 185.161 97.2626C185.125 97.002 185.329 97.8353 185.329 97.8353" fill="#0072E7"/>
<path d="M184.072 98.1694L164.233 86.7359C163.631 86.3892 163.144 85.4587 163.144 84.6581V78.5749C163.144 77.7744 163.631 77.4058 164.233 77.753L184.072 89.1866C184.674 89.5332 185.162 90.4637 185.162 91.2643V97.3475C185.162 98.1481 184.673 98.5166 184.072 98.1694Z" fill="url(#paint11_linear)"/>
<path d="M169.478 87.0919V83.4387L170.052 83.7696V85.3162L171.521 86.1626V84.616L172.096 84.9476V88.6007L171.521 88.2692V86.717L170.052 85.8706V87.4228L169.478 87.0919Z" fill="white"/>
<path d="M173.294 85.6368V89.29L172.72 88.9591V85.3059L173.294 85.6368Z" fill="white"/>
<path d="M173.918 89.6512V85.998L175.106 86.6831C175.47 86.8928 175.748 87.1609 175.938 87.4856C176.128 87.8108 176.223 88.1467 176.223 88.4959C176.223 88.7445 176.175 88.9297 176.078 89.0522C175.981 89.1746 175.84 89.2249 175.654 89.2041L176.339 91.0477L175.699 90.6785L175.077 88.9819L174.492 88.6447V89.9827L173.918 89.6512ZM174.492 88.0946L175.021 88.3998C175.233 88.5222 175.389 88.5612 175.489 88.5166C175.588 88.4714 175.638 88.3527 175.638 88.1587C175.638 87.9634 175.589 87.7832 175.489 87.618C175.389 87.4535 175.232 87.3085 175.018 87.1854L174.492 86.8821V88.0946Z" fill="white"/>
<path d="M176.752 91.2833V87.6301L178.813 88.8181V89.3732L177.326 88.5161V89.5076L178.706 90.3031V90.8582L177.326 90.0626V91.0598L178.825 91.9238V92.4788L176.752 91.2833Z" fill="white"/>
<path d="M185.162 97.9307L186.045 97.4215C186.173 97.348 186.252 97.2117 186.252 97.0648V90.2891C186.252 89.972 185.908 89.7735 185.633 89.9324L185.368 90.0844C185.241 90.1578 185.162 90.2941 185.162 90.441V97.9307Z" fill="#0072E7"/>
<path d="M185.126 89.726C184.916 89.8471 184.657 89.8471 184.447 89.726L163.575 77.6689L164.325 77.2369C164.535 77.1157 164.794 77.1157 165.004 77.2369L185.288 88.9342L185.126 89.726Z" fill="#0072E7"/>
<path d="M185.162 91.2457C185.162 91.2457 185.067 90.2166 184.095 89.5215C182.82 88.6085 184.792 88.6663 184.792 88.6663C184.792 88.6663 186.251 89.2879 186.251 90.2109C186.252 91.1339 185.162 91.2457 185.162 91.2457Z" fill="#0072E7"/>
<path d="M182.903 68.9742V127.32C182.903 127.608 182.728 127.741 182.511 127.616L107.215 84.3008C106.998 84.1759 106.822 83.8406 106.822 83.5523V25.4226" fill="#EAFCFF"/>
<path d="M177.048 118.563C177.014 113.311 177.022 74.8164 177.022 74.8164L178.532 74.1577C178.683 74.0704 178.862 74.1835 178.862 74.385L178.805 117.34C178.805 117.541 177.443 118.386 177.26 118.494C177.261 118.494 177.048 118.617 177.048 118.563Z" fill="#E8E8E8"/>
<path d="M177.151 75.0971L177.086 74.9897L150.46 59.8622L150.228 59.9953C150.228 59.9953 150.275 59.8258 150.341 59.7592C150.4 59.7008 151.694 58.995 151.694 58.995C151.869 58.8946 152.105 59.0616 152.256 59.1489L178.685 74.1144C178.739 74.1452 178.866 74.2199 178.862 74.3819C178.862 74.3819 178.854 74.3957 178.806 74.4152L177.151 75.0971Z" fill="url(#paint12_linear)"/>
<path d="M176.923 118.538L150.522 103.588C150.35 103.489 150.211 103.224 150.211 102.996V60.1191C150.211 59.8905 150.35 59.7856 150.522 59.8842L176.923 74.8341C177.095 74.9333 177.234 75.1982 177.234 75.4274V118.303C177.234 118.532 177.095 118.637 176.923 118.538Z" fill="white"/>
<path d="M146.09 101.211C146.056 95.9592 146.074 57.4641 146.074 57.4641L147.745 56.6447C148.111 56.4525 148.075 56.6704 148.075 56.872L148.018 99.8264C148.018 100.028 146.412 100.938 146.301 101.079C146.301 101.079 146.091 101.266 146.09 101.211Z" fill="#E8E8E8"/>
<path d="M146.202 57.7461L146.137 57.6388L110.147 36.7766L109.915 36.9097C109.915 36.9097 109.962 36.7401 110.028 36.6736C110.087 36.6152 111.653 35.7669 111.653 35.7669C111.828 35.6664 111.954 35.6551 112.105 35.7424L147.897 56.4432C147.951 56.474 148.078 56.5487 148.074 56.7107C148.074 56.7107 148.066 56.7245 148.017 56.744L146.202 57.7461Z" fill="url(#paint13_linear)"/>
<path d="M145.974 101.187L110.21 80.502C110.038 80.4028 109.899 80.1378 109.899 79.9093V37.0326C109.899 36.8041 110.038 36.6992 110.21 36.7978L145.974 57.4823C146.146 57.5815 146.285 57.8465 146.285 58.0757V100.952C146.285 101.181 146.146 101.286 145.974 101.187Z" fill="white"/>
<path d="M130.767 65.594L143.406 72.8783C143.631 73.0083 143.832 72.8381 143.855 72.4997C143.878 72.1606 143.714 71.7807 143.489 71.6507L130.85 64.3664C130.625 64.237 130.424 64.4066 130.401 64.7457C130.378 65.0841 130.541 65.4646 130.767 65.594Z" fill="#A4D4FC"/>
<path d="M130.523 69.2033L143.163 76.4877C143.388 76.6177 143.589 76.4475 143.612 76.109C143.634 75.77 143.471 75.3901 143.246 75.2601L130.606 67.9758C130.382 67.8464 130.181 68.016 130.158 68.355C130.135 68.6935 130.299 69.074 130.523 69.2033Z" fill="#A4D4FC"/>
<path d="M119.953 45.1298C119.953 45.1298 116.464 42.9729 115.608 47.7469C115.329 49.3016 116.444 51.1489 115.782 52.0656C115.12 52.9824 113.1 53.2549 113.727 55.4237C114.354 57.5931 111.953 57.9297 113.031 61.0026C114.111 64.0813 125.844 70.2693 126.784 69.2345C127.725 68.2003 127.404 65.0212 126.544 63.2744C125.73 61.618 126.232 59.8479 126.403 59.0185C126.753 57.3218 125.674 55.5869 125.012 54.2784C124.351 52.9705 124.159 47.6238 119.953 45.1298Z" fill="#3D3300"/>
<path d="M115.978 56.464C116.26 56.4138 116.563 56.4175 116.882 56.4753L118.449 56.751L118.572 56.7723L118.621 56.7805L118.664 56.7886L120.143 57.0498L121.628 58.322V58.4928C121.625 58.4915 121.625 58.4953 121.621 58.4934L121.701 58.5725L121.713 58.5832L121.928 58.7923L123.4 60.2321C123.737 60.5605 124.055 60.9272 124.35 61.3253C125.749 63.1914 126.649 65.7074 126.649 67.9164V70.3966C126.649 70.6704 126.483 70.796 126.276 70.6773L114.008 63.6071C113.803 63.4884 113.635 63.1707 113.635 62.8969V60.4167C113.636 58.1826 114.555 56.6944 115.978 56.464Z" fill="url(#paint14_linear)"/>
<path d="M116.528 50.1242C116.572 49.6514 116.937 49.9478 117.035 50.037C117.026 49.8781 117.02 49.7199 117.02 49.5629C117.02 46.9301 118.418 45.6014 120.143 46.5954C121.867 47.5894 123.266 50.5292 123.266 53.1621C123.266 53.3203 123.26 53.4729 123.251 53.6217C123.328 53.638 123.722 53.7498 123.768 54.2967C123.819 54.9039 123.13 55.6749 122.849 55.3026C122.849 55.3013 122.848 55.2995 122.847 55.2982C122.558 55.8953 122.137 56.2846 121.628 56.4115V58.4905C121.625 58.4886 121.625 58.493 121.622 58.4911C120.74 58.8346 119.546 58.1464 118.664 56.7863C118.662 56.7851 118.662 56.7807 118.658 56.7788V54.6998C118.15 53.9878 117.73 53.1156 117.442 52.1882C117.158 52.2189 116.477 50.6693 116.528 50.1242Z" fill="#FFD199"/>
<path d="M119.306 47.5473C119.306 47.5473 120.325 50.1971 121.862 52.1291C122.192 52.5448 123.251 53.6217 123.251 53.6217C123.251 53.6217 124.672 52.2905 123.786 50.1286C122.644 47.3464 121.355 45.911 120.21 45.2761C118.739 44.4599 117.506 44.9666 117.136 45.6378C116.476 46.8296 117.021 50.3773 117.021 50.3773C117.021 50.3773 117.233 49.0486 117.453 48.5168C117.673 47.9849 119.306 47.5473 119.306 47.5473Z" fill="#3D3300"/>
<path d="M131.213 57.364C131.14 57.3339 131.168 57.3621 130.536 57.7163C130.619 57.6679 131.452 58.1144 131.533 58.0679L132.141 57.715C132.086 57.747 132.062 57.7018 131.213 57.364Z" fill="#FF8C00"/>
<path d="M133.542 59.6448C132.735 60.2708 132.846 59.5179 133.043 61.1649C133.05 61.2171 133.035 61.2522 133.009 61.2673C133.607 60.8962 133.669 60.9452 133.652 60.812C133.651 60.812 133.463 59.6906 133.542 59.6448Z" fill="#FF8C00"/>
<path d="M133.15 58.262C132.575 56.6797 132.887 56.8492 131.964 57.3528C132.137 57.2523 132.244 57.7961 132.542 58.6155C132.631 58.8792 133.899 59.4739 133.558 59.6616L134.166 59.3087C134.5 59.1241 133.239 58.5264 133.15 58.262Z" fill="#FF8C00"/>
<path d="M132.161 57.5029C132.779 59.2334 132.28 58.3744 133.49 59.3816C133.964 59.7319 132.867 59.8487 132.9 60.0999C132.954 60.8044 133.175 61.4047 132.922 61.2584C132.799 61.1874 132.12 60.2355 131.986 60.2393C130.709 60.2631 131.071 60.4038 131.19 59.1147C131.209 58.9973 131.134 58.964 130.536 57.9192C130.253 57.4376 131.181 57.9926 131.463 58.0699C131.578 58.1157 131.55 58.0096 131.942 57.376C131.964 57.3371 132.12 57.3854 132.161 57.5029Z" fill="#FFC033"/>
<path d="M136.269 60.5044C136.196 60.4743 136.224 60.5025 135.592 60.8567C135.675 60.8083 136.508 61.2547 136.589 61.2083L137.197 60.8554C137.142 60.8874 137.118 60.8422 136.269 60.5044Z" fill="#FF8C00"/>
<path d="M138.599 62.7852C137.792 63.4112 137.903 62.6583 138.1 64.3053C138.107 64.3574 138.092 64.3926 138.067 64.4077C138.664 64.0366 138.726 64.0855 138.709 63.9524C138.708 63.9524 138.52 62.831 138.599 62.7852Z" fill="#FF8C00"/>
<path d="M138.206 61.4024C137.631 59.8201 137.943 59.9896 137.021 60.4932C137.193 60.3927 137.3 60.9365 137.598 61.7559C137.687 62.0196 138.955 62.6143 138.614 62.802L139.222 62.4491C139.556 62.2645 138.296 61.6667 138.206 61.4024Z" fill="#FF8C00"/>
<path d="M137.217 60.6432C137.835 62.3738 137.336 61.5148 138.547 62.5219C139.02 62.8723 137.923 62.9891 137.956 63.2403C138.011 63.9448 138.231 64.5451 137.978 64.3988C137.855 64.3278 137.177 63.3759 137.042 63.3797C135.765 63.4035 136.127 63.5442 136.246 62.2551C136.265 62.1377 136.19 62.1044 135.593 61.0595C135.31 60.5779 136.237 61.133 136.519 61.2102C136.634 61.2561 136.606 61.15 136.998 60.5164C137.02 60.4775 137.177 60.5258 137.217 60.6432Z" fill="#FFC033"/>
<path d="M141.326 63.0161C141.252 62.986 141.281 63.0142 140.648 63.3684C140.732 63.32 141.564 63.7665 141.645 63.72L142.254 63.3671C142.198 63.3991 142.174 63.3539 141.326 63.0161Z" fill="#FF8C00"/>
<path d="M143.655 65.2969C142.848 65.9229 142.96 65.17 143.157 66.817C143.164 66.8692 143.149 66.9043 143.123 66.9194C143.721 66.5483 143.783 66.5973 143.766 66.4642C143.765 66.4642 143.576 65.3427 143.655 65.2969Z" fill="#FF8C00"/>
<path d="M143.263 63.9141C142.687 62.3318 142.999 62.5013 142.077 63.0049C142.25 62.9044 142.356 63.4482 142.655 64.2676C142.743 64.5313 144.011 65.126 143.67 65.3137L144.279 64.9608C144.613 64.7762 143.352 64.1785 143.263 63.9141Z" fill="#FF8C00"/>
<path d="M142.273 63.155C142.892 64.8855 142.392 64.0265 143.603 65.0337C144.077 65.384 142.98 65.5008 143.013 65.752C143.067 66.4565 143.288 67.0568 143.035 66.9105C142.912 66.8395 142.233 65.8876 142.099 65.8914C140.822 65.9152 141.184 66.0559 141.303 64.7668C141.322 64.6494 141.247 64.6161 140.649 63.5713C140.366 63.0897 141.294 63.6447 141.576 63.722C141.69 63.7678 141.663 63.6617 142.055 63.0281C142.077 62.9892 142.233 63.0375 142.273 63.155Z" fill="#FFC033"/>
<path d="M158.522 81.0204C156.449 79.8236 154.753 76.583 154.753 73.8189C154.753 72.2668 154.77 70.8263 155.681 70.5745C156.644 70.3089 157.613 70.4452 158.521 70.9695C160.594 72.1663 162.291 75.4069 162.291 78.171C162.291 80.6342 160.912 81.5052 159.192 81.4675C158.966 81.4625 158.747 81.1504 158.522 81.0204Z" fill="#056600"/>
<path d="M182.834 69.2363V127.61L184.26 126.461C184.504 126.308 184.652 126.041 184.652 125.753V67.9453" fill="#CEEEF4"/>
<path d="M184.652 68.2117V60.6913C184.652 60.5833 184.535 60.5155 184.441 60.5695L182.834 61.5748V69.2346" fill="#000BDE"/>
<path d="M184.512 60.9174L182.862 61.8681C182.716 61.9522 182.536 61.9516 182.39 61.8675L106.938 18.0295C106.92 18.0195 106.92 17.9931 106.938 17.983L108.749 16.9395C109.024 16.7806 109.365 16.7806 109.64 16.9395L184.512 60.4421C184.695 60.5482 184.695 60.8119 184.512 60.9174Z" fill="url(#paint15_linear)"/>
<path d="M106.823 25.683V18.2882C106.823 17.9999 106.998 17.8668 107.215 17.9918L182.442 61.3073C182.659 61.4323 182.834 61.7676 182.834 62.0558V69.2346" fill="url(#paint16_linear)"/>
<path d="M111.24 25.7191C111.71 25.5198 111.804 24.6869 111.451 23.8588C111.098 23.0307 110.431 22.521 109.962 22.7203C109.493 22.9197 109.398 23.7526 109.752 24.5807C110.105 25.4088 110.771 25.9185 111.24 25.7191Z" fill="white"/>
<path d="M115.165 27.9808C115.634 27.7815 115.728 26.9486 115.375 26.1205C115.022 25.2924 114.356 24.7827 113.886 24.9821C113.417 25.1814 113.323 26.0143 113.676 26.8424C114.029 27.6705 114.696 28.1802 115.165 27.9808Z" fill="white"/>
<path d="M119.09 30.2426C119.559 30.0432 119.653 29.2103 119.3 28.3822C118.947 27.5541 118.28 27.0444 117.811 27.2438C117.342 27.4431 117.248 28.276 117.601 29.1041C117.954 29.9322 118.62 30.4419 119.09 30.2426Z" fill="white"/>
<path d="M113.317 68.7357L141.395 84.9175C141.66 85.0701 141.875 84.9081 141.875 84.5558C141.875 84.2035 141.66 83.7941 141.395 83.6416L113.317 67.4598C113.053 67.3072 112.838 67.4692 112.838 67.8214C112.838 68.1737 113.052 68.5831 113.317 68.7357Z" fill="#A4D4FC"/>
<path d="M113.317 73.0018L141.395 89.1836C141.66 89.3362 141.875 89.1741 141.875 88.8219C141.875 88.4696 141.66 88.0602 141.395 87.9077L113.317 71.7259C113.053 71.5733 112.838 71.7353 112.838 72.0875C112.838 72.4398 113.052 72.8492 113.317 73.0018Z" fill="#A4D4FC"/>
<path d="M113.317 77.3292L141.395 93.511C141.66 93.6636 141.875 93.5016 141.875 93.1493C141.875 92.797 141.66 92.3876 141.395 92.2351L113.317 76.0533C113.053 75.9007 112.838 76.0627 112.838 76.4149C112.838 76.7672 113.052 77.1766 113.317 77.3292Z" fill="#A4D4FC"/>
<path d="M157.633 81.0189C155.561 79.8221 153.864 76.5815 153.864 73.8175C153.864 71.0534 155.56 69.7712 157.633 70.968C159.707 72.1648 161.403 75.4054 161.403 78.1695C161.403 80.9335 159.706 82.2157 157.633 81.0189Z" fill="#46A823"/>
<path d="M170.288 86.5341C168.215 85.3373 166.519 82.0967 166.519 79.3326C166.519 77.7804 166.536 76.34 167.447 76.0882C168.409 75.8226 169.379 75.9589 170.287 76.4832C172.36 77.68 174.056 80.9206 174.056 83.6846C174.056 86.1479 172.678 87.0188 170.958 86.9812C170.732 86.9761 170.514 86.6641 170.288 86.5341Z" fill="#931032"/>
<path d="M169.4 86.5341C167.327 85.3373 165.631 82.0967 165.631 79.3326C165.631 76.5686 167.327 75.2864 169.4 76.4832C171.473 77.68 173.169 80.9206 173.169 83.6846C173.169 86.4487 171.473 87.7309 169.4 86.5341Z" fill="#FF4242"/>
<path d="M156.083 75.7008L157.019 77.523L159.72 75.3159" stroke="white" stroke-width="2" stroke-miterlimit="10" stroke-linecap="round" stroke-linejoin="round"/>
<path d="M170.717 84.0198L168.083 78.9966" stroke="white" stroke-width="2" stroke-miterlimit="10" stroke-linecap="round"/>
<path d="M168.083 82.5041L170.717 80.5161" stroke="white" stroke-width="2" stroke-miterlimit="10" stroke-linecap="round"/>
<path d="M174.187 104.693L173.944 104.837C173.944 104.837 174.223 104.285 174.187 104.023C174.151 103.763 174.355 104.596 174.355 104.596" fill="#0072E7"/>
<path d="M173.098 104.931L153.259 93.4971C152.657 93.1505 152.169 92.2199 152.169 91.4193V85.3362C152.169 84.5356 152.657 84.167 153.259 84.5142L173.098 95.9478C173.7 96.2944 174.187 97.225 174.187 98.0255V104.109C174.187 104.909 173.699 105.277 173.098 104.931Z" fill="url(#paint17_linear)"/>
<path d="M157.246 93.2271V89.574L157.82 89.9049V91.4514L159.289 92.2978V90.7513L159.864 91.0828V94.736L159.289 94.4045V92.8523L157.82 92.0059V93.558L157.246 93.2271Z" fill="white"/>
<path d="M161.691 92.1393V95.7924L161.117 95.4615V91.8083L161.691 92.1393Z" fill="white"/>
<path d="M162.944 96.4381V92.7849L164.132 93.47C164.496 93.6797 164.774 93.9478 164.964 94.2724C165.154 94.5977 165.249 94.9336 165.249 95.2827C165.249 95.5314 165.201 95.7166 165.104 95.839C165.006 95.9615 164.866 96.0117 164.68 95.991L165.365 97.8345L164.725 97.4653L164.103 95.7687L163.518 95.4315V96.7696L162.944 96.4381ZM163.518 94.8809L164.047 95.186C164.259 95.3085 164.416 95.3474 164.515 95.3028C164.615 95.2576 164.665 95.1389 164.665 94.9449C164.665 94.7496 164.615 94.5694 164.515 94.4043C164.416 94.2398 164.259 94.0947 164.044 93.9717L163.518 93.6684V94.8809H163.518Z" fill="white"/>
<path d="M166.408 98.5084V94.8552L168.469 96.0432V96.5983L166.981 95.7412V96.7327L168.362 97.5282V98.0833L166.981 97.2877V98.2849L168.481 99.1488V99.7039L166.408 98.5084Z" fill="white"/>
<path d="M174.188 104.691L175.071 104.182C175.199 104.109 175.277 103.972 175.277 103.826V97.0498C175.277 96.7327 174.933 96.5343 174.659 96.6932L174.394 96.8451C174.267 96.9186 174.188 97.0548 174.188 97.2018V104.691Z" fill="#000BDE"/>
<path d="M174.152 96.4867C173.942 96.6079 173.683 96.6079 173.473 96.4867L152.601 84.4296L153.351 83.9976C153.561 83.8764 153.82 83.8764 154.03 83.9976L174.313 95.6949L174.152 96.4867Z" fill="#000BDE"/>
<path d="M174.188 98.0065C174.188 98.0065 174.092 96.9773 173.121 96.2822C171.846 95.3692 173.818 95.427 173.818 95.427C173.818 95.427 175.277 96.0486 175.277 96.9717C175.278 97.8953 174.188 98.0065 174.188 98.0065Z" fill="#000BDE"/>
<path opacity="0.2" fill-rule="evenodd" clip-rule="evenodd" d="M146.366 127.917L133.276 120.475C131.849 119.824 129.806 119.306 128.353 120.062C127.028 120.75 124.845 122.158 123.881 122.708C123.148 123.124 120.604 124.646 122.188 125.507C126.85 128.037 131.463 130.883 136.197 133.453C137.092 133.939 138.401 134.115 139.776 134C141.145 133.887 142.549 133.489 143.654 132.848C144.44 132.391 145.214 131.942 145.975 131.499C147.002 130.902 147.546 130.197 147.6 129.544C147.653 128.908 147.242 128.317 146.366 127.917Z" fill="#008BDC"/>
<path fill-rule="evenodd" clip-rule="evenodd" d="M132.552 118.191C132.46 119.088 132.299 119.921 131.985 120.533C131.828 120.704 131.633 120.806 131.541 121.001C131.051 122.042 130.943 123.045 131.285 128.389L132.541 128.416L132.702 126.528C132.858 125.763 133.289 124.643 133.462 123.95C133.842 122.439 133.878 121.682 134.11 120.571L132.552 118.191Z" fill="#FFC3AE"/>
<path fill-rule="evenodd" clip-rule="evenodd" d="M129.915 124.631C129.778 124.612 129.519 124.601 129.49 124.569C129.425 124.497 129.303 124.142 129.392 124.076C129.55 123.971 129.872 124.528 129.915 124.631Z" fill="#141A4E"/>
<path fill-rule="evenodd" clip-rule="evenodd" d="M130.613 122.493C130.763 122.971 130.55 123.431 130.399 123.927C129.874 125.659 129.566 125.757 129.789 126.54C129.943 127.085 130.215 127.526 130.557 127.916C130.897 128.303 131 128.582 131.437 128.883C132.096 129.337 132.682 129.549 132.539 128.638C132.488 128.316 132.391 127.949 132.324 127.793C131.858 126.712 131.315 126.237 131.609 124.888C131.827 123.885 132.175 123.225 131.724 122.55L130.613 122.493Z" fill="#141A4E"/>
<path fill-rule="evenodd" clip-rule="evenodd" d="M130.717 121.413C130.52 122.317 130.224 123.076 129.391 124.074C129.496 124.046 129.764 124.32 129.911 124.622C130.998 123.375 131.526 122.77 131.86 123.306C131.828 123.757 131.663 124.573 131.524 125.208C131.479 125.417 131.428 125.878 131.561 126.196C131.987 127.218 132.769 128.71 132.471 129.199C132.576 129.067 132.694 128.708 132.693 128.223C132.691 127.517 132.571 126.562 132.556 125.975C132.536 125.181 132.836 124.493 132.884 123.413C132.897 123.108 132.9 122.81 132.882 122.507C132.837 121.743 132.753 120.729 132.214 120.443C132.022 120.34 131.524 120.414 131.266 120.545C130.905 120.728 130.793 121.065 130.717 121.413Z" fill="#2A398A"/>
<path fill-rule="evenodd" clip-rule="evenodd" d="M138.142 107.822L141.974 96.7361L142.099 93.6914C142.119 93.1997 141.856 92.8387 141.701 92.4531C139.682 93.0478 138.551 93.6876 136.38 93.6116C135.729 94.578 134.837 96.3863 134.804 97.7527C134.74 100.414 134.949 102.191 134.135 106.64C131.714 114.777 132.969 114.495 132.043 119.901C131.965 120.478 133.744 120.936 134.349 120.577L138.142 107.822Z" fill="#4352B5"/>
<path fill-rule="evenodd" clip-rule="evenodd" d="M138.142 107.822L141.975 96.7361L142.099 93.6914C142.119 93.1997 141.856 92.8387 141.702 92.4531C141.293 92.5731 140.922 92.6955 140.57 92.8129L138.316 96.4089C137.451 98.1708 137.232 100.443 136.607 100.968C137.318 102.689 137.011 106.151 136.756 108.052C136.028 107.807 135.358 107.706 134.641 107.438C135.133 107.847 136.039 108.256 136.543 108.771C135.626 112.059 135.184 115.418 134.877 118.808L138.142 107.822Z" fill="#2A398A"/>
<path fill-rule="evenodd" clip-rule="evenodd" d="M139.638 122.648C139.607 123.498 138.798 124.322 138.703 124.873C138.486 126.141 139.406 125.482 140.447 127.111C140.864 127.107 141.783 128.607 143.025 128.687C143.311 128.705 143.821 128.013 143.256 127.524C143.005 127.379 142.781 127.487 142.574 127.307C142.143 126.927 141.635 123.803 141.736 122.904L139.638 122.648Z" fill="#FFC3AE"/>
<path fill-rule="evenodd" clip-rule="evenodd" d="M139.163 123.902C140.172 124.026 141.115 126.485 141.895 127.554C142.274 128.073 143.077 127.537 142.751 127.399C142.917 127.41 143.528 127.338 143.979 127.411C144.611 127.512 144.389 128.145 143.959 128.442C143.001 129.102 142.151 129.475 141.282 129.037C141.137 128.964 140.944 128.828 140.75 128.683C140.615 128.583 140.459 128.473 140.395 128.396C140.114 128.06 140.006 127.519 139.749 127.058C139.664 126.905 139.595 126.872 139.54 126.914C139.434 127.061 139.544 129.272 139.596 129.715C139.568 129.842 139.136 129.942 139.049 129.846L138.247 125.917C138.156 125.598 138.191 125.219 138.352 124.912C138.595 124.451 139.056 124.095 139.163 123.902Z" fill="#2A398A"/>
<path fill-rule="evenodd" clip-rule="evenodd" d="M141.797 129.207C141.624 129.177 141.453 129.122 141.282 129.035C141.138 128.962 140.944 128.827 140.75 128.682C140.615 128.581 140.459 128.471 140.395 128.395C140.091 128.031 139.942 127.354 139.604 126.89C139.717 126.821 140.012 126.828 140.307 127.314C140.751 128.129 141.056 128.729 141.642 129.124C141.692 129.157 141.743 129.183 141.797 129.207Z" fill="#141A4E"/>
<path fill-rule="evenodd" clip-rule="evenodd" d="M144.806 105.473C145.371 102.537 145.358 100.843 145.169 98.6812C145.096 97.4436 145.224 96.8365 144.816 95.6372C144.657 95.17 144.44 94.7838 144.224 94.3989C142.298 94.9929 140.86 95.5763 138.678 95.4997C138.177 96.466 137.745 97.7589 137.926 99.1258C138.279 101.788 139.195 103.964 139.49 108.529C138.74 113.848 139.291 117.437 139.4 122.592C139.413 123.169 141.263 123.627 141.813 123.268C142.962 117.226 143.67 111.378 144.806 105.473Z" fill="url(#paint18_linear)"/>
<path fill-rule="evenodd" clip-rule="evenodd" d="M134.679 87.055L138.528 87.9322C139.3 88.2775 138.715 89.9132 137.951 90.1047L132.579 89.4109C131.21 89.1208 130.91 88.2204 131.207 87.5184C131.213 87.5033 131.22 87.4895 131.227 87.475C131.32 87.0405 134.056 83.113 134.45 82.5811C134.999 81.8408 135.572 81.3643 135.81 81.2217C136.275 80.9429 136.89 81.0164 137.293 81.2625C137.846 81.6016 138.031 82.1636 137.816 82.6797C137.422 83.6228 135.927 85.4701 134.679 87.055Z" fill="#FB7DB9"/>
<path fill-rule="evenodd" clip-rule="evenodd" d="M136.805 80.7583C134.549 80.504 134.544 84.2162 135.329 85.9643C137.37 90.5116 136.05 91.2148 136.237 93.2875L136.195 94.122C138.135 97.0054 143.757 96.78 144.439 94.6966C144.403 94.5666 144.374 94.019 144.325 93.8834C144.458 92.0556 143.58 90.6158 143.75 89.37C144.036 87.2778 145.176 86.5426 144.562 84.7536C144.113 84.1377 142.898 83.1506 141.634 82.4599C139.857 81.4879 137.871 80.8788 136.805 80.7583Z" fill="url(#paint19_linear)"/>
<path fill-rule="evenodd" clip-rule="evenodd" d="M152.031 75.644C152.647 74.7593 153.354 73.2856 154.087 72.8366C154.469 72.3701 155.017 71.6386 155.376 71.1871C155.638 70.8569 156.043 71.3818 155.835 71.7045C155.632 72.021 155.066 72.836 155.065 72.8385C155.056 72.8479 155.046 72.8574 155.037 72.8662C155.363 73.096 155.593 73.5167 155.672 73.8457C155.778 74.2852 155.107 75.2007 154.709 75.8261C154.356 76.3812 153.644 76.395 153.422 76.8082C152.733 76.795 152.343 76.1671 152.031 75.644Z" fill="#FFC3AE"/>
<path fill-rule="evenodd" clip-rule="evenodd" d="M142.664 83.4662C143.169 83.0807 144.155 83.0084 144.874 82.7133C146.061 82.2267 147.475 81.4908 148.678 81.158C148.825 80.5345 150.458 77.7183 151.453 76.2584C151.563 76.0971 151.793 75.9991 151.881 75.8748C151.989 75.721 152.079 75.5979 152.144 75.5156C152.562 75.5508 153.285 76.0519 153.709 76.5096C153.631 76.6735 153.556 76.843 153.483 77.0182C153.426 77.1532 153.465 77.5149 153.41 77.6543C152.82 79.165 152.235 80.699 151.524 81.8663C151.421 82.0339 151.306 82.5331 151.03 82.9086C150.766 83.2678 149.748 83.9647 149.344 84.214C148.455 84.7622 146.395 86.1649 144.78 86.801C143.594 87.2675 143.086 86.9994 142.651 86.5718C141.637 85.5753 141.659 84.2335 142.664 83.4662Z" fill="url(#paint20_linear)"/>
<path fill-rule="evenodd" clip-rule="evenodd" d="M136.805 80.7583C134.549 80.504 134.544 84.2162 135.329 85.9643C137.37 90.5116 136.05 91.2148 136.237 93.2875L136.195 94.122C138.135 97.0054 143.757 96.78 144.439 94.6966C144.406 94.5779 144.379 94.1076 144.337 93.9255C142.291 95.8783 139.329 95.3621 137.578 94.3192C137.415 93.5531 137.515 93.2134 137.619 92.8982C139.028 91.3844 142.508 91.9281 143.355 87.772C143.601 86.5652 142.802 85.5053 142.026 84.5471C141.654 84.0881 141.378 83.8482 140.879 83.155C140.065 83.3471 138.549 83.0778 138.368 82.7462C138.304 82.6307 138.626 81.6154 138.573 81.491C137.18 80.8788 137.625 80.8506 136.805 80.7583Z" fill="#F54291"/>
<path fill-rule="evenodd" clip-rule="evenodd" d="M137.529 81.7843C137.354 82.5239 140.06 83.3226 140.986 82.9208L141.006 82.7418C141.245 81.6386 141.48 80.7005 141.645 79.9257C142.076 80.109 143.134 80.1624 143.228 80.0148C140.375 77.7412 137.04 76.0603 136.611 77.2081C136.894 78.0394 137.624 78.6309 137.989 79.1722C138.086 79.316 138.162 79.6161 138.18 79.9162C138.076 80.5021 137.853 81.0641 137.529 81.7843Z" fill="#FFC3AE"/>
<path fill-rule="evenodd" clip-rule="evenodd" d="M143.094 80.1455C142.848 80.3056 141.102 79.726 140.961 79.7329C139.602 79.8001 138.141 79.6896 137.871 79.2902C137.507 78.749 136.776 78.1575 136.494 77.3262C136.042 75.9969 136.13 74.4981 137.347 73.4545C139.464 71.6405 142.785 72.9697 143.26 75.0249C143.455 75.8675 143.214 75.9379 143.253 76.5023C143.327 77.5422 143.445 77.1503 143.349 78.7961C143.313 79.4234 143.257 80.0393 143.094 80.1455Z" fill="#FFC3AE"/>
<path fill-rule="evenodd" clip-rule="evenodd" d="M137.92 80.7939C137.994 81.4671 139.892 81.9418 141.043 81.6737C141.167 81.6448 141.243 81.6215 141.287 81.5437C141.457 81.6366 141.918 82.3009 141.97 82.6312C140.975 83.5888 137.831 83.0274 137.449 81.906C137.358 81.6385 137.273 81.1324 137.92 80.7939Z" fill="#FB7DB9"/>
<path fill-rule="evenodd" clip-rule="evenodd" d="M132.68 78.5607C130.87 80.0715 129.851 82.7916 130.675 84.335C131.421 85.7333 133.241 86.5565 132.681 87.4418C132.218 88.174 131.128 88.9074 132.425 90.0891C133.092 90.6975 134.722 92.3295 138.048 91.4837C141.291 90.6599 144.694 87.8638 141.962 84.8065C139.087 81.5891 140.769 80.8777 142.418 78.3472C143.29 77.0098 144.069 74.3657 143.323 73.3818C142.041 71.6952 141.19 72.9108 139.957 72.3149C137.606 71.1778 135.677 71.9909 134.572 73.7679C133.582 75.359 134.119 77.3595 132.68 78.5607Z" fill="url(#paint21_linear)"/>
<defs>
<linearGradient id="paint0_linear" x1="171.865" y1="45.3343" x2="175.757" y2="65.5915" gradientUnits="userSpaceOnUse">
<stop stop-color="#F4F4F4"/>
<stop offset="1" stop-color="#E8E8E8"/>
</linearGradient>
<linearGradient id="paint1_linear" x1="131.497" y1="22.1407" x2="136.806" y2="49.7779" gradientUnits="userSpaceOnUse">
<stop stop-color="#F4F4F4"/>
<stop offset="1" stop-color="#E8E8E8"/>
</linearGradient>
<linearGradient id="paint2_linear" x1="134.791" y1="44.4938" x2="147.805" y2="44.4938" gradientUnits="userSpaceOnUse">
<stop stop-color="#7A8BFA"/>
<stop offset="1" stop-color="#4352B5"/>
</linearGradient>
<linearGradient id="paint3_linear" x1="128.076" y1="25.5243" x2="205.801" y2="25.5243" gradientUnits="userSpaceOnUse">
<stop stop-color="#0058E5"/>
<stop offset="1" stop-color="#000BDE"/>
</linearGradient>
<linearGradient id="paint4_linear" x1="127.974" y1="29.7385" x2="203.986" y2="29.7385" gradientUnits="userSpaceOnUse">
<stop stop-color="#0072E7"/>
<stop offset="1" stop-color="#0025E0"/>
</linearGradient>
<linearGradient id="paint5_linear" x1="171.829" y1="73.6707" x2="189.674" y2="67.4778" gradientUnits="userSpaceOnUse">
<stop stop-color="#00AED6"/>
<stop offset="1" stop-color="#008BEA"/>
</linearGradient>
<linearGradient id="paint6_linear" x1="161.687" y1="52.425" x2="165.579" y2="72.6822" gradientUnits="userSpaceOnUse">
<stop stop-color="#F4F4F4"/>
<stop offset="1" stop-color="#E8E8E8"/>
</linearGradient>
<linearGradient id="paint7_linear" x1="121.318" y1="29.2314" x2="126.628" y2="56.8685" gradientUnits="userSpaceOnUse">
<stop stop-color="#F4F4F4"/>
<stop offset="1" stop-color="#E8E8E8"/>
</linearGradient>
<linearGradient id="paint8_linear" x1="124.614" y1="51.5851" x2="137.627" y2="51.5851" gradientUnits="userSpaceOnUse">
<stop stop-color="#7A8BFA"/>
<stop offset="1" stop-color="#4352B5"/>
</linearGradient>
<linearGradient id="paint9_linear" x1="117.899" y1="32.6147" x2="195.623" y2="32.6147" gradientUnits="userSpaceOnUse">
<stop stop-color="#0058E5"/>
<stop offset="1" stop-color="#000BDE"/>
</linearGradient>
<linearGradient id="paint10_linear" x1="117.797" y1="36.8289" x2="193.808" y2="36.8289" gradientUnits="userSpaceOnUse">
<stop stop-color="#0072E7"/>
<stop offset="1" stop-color="#0025E0"/>
</linearGradient>
<linearGradient id="paint11_linear" x1="161.652" y1="80.7614" x2="179.497" y2="74.5685" gradientUnits="userSpaceOnUse">
<stop stop-color="#00AED6"/>
<stop offset="1" stop-color="#008BEA"/>
</linearGradient>
<linearGradient id="paint12_linear" x1="150.713" y1="59.1862" x2="154.605" y2="79.4434" gradientUnits="userSpaceOnUse">
<stop stop-color="#F4F4F4"/>
<stop offset="1" stop-color="#E8E8E8"/>
</linearGradient>
<linearGradient id="paint13_linear" x1="110.344" y1="35.9925" x2="115.654" y2="63.6297" gradientUnits="userSpaceOnUse">
<stop stop-color="#F4F4F4"/>
<stop offset="1" stop-color="#E8E8E8"/>
</linearGradient>
<linearGradient id="paint14_linear" x1="113.64" y1="58.3449" x2="126.654" y2="58.3449" gradientUnits="userSpaceOnUse">
<stop stop-color="#7A8BFA"/>
<stop offset="1" stop-color="#4352B5"/>
</linearGradient>
<linearGradient id="paint15_linear" x1="106.925" y1="39.3755" x2="184.649" y2="39.3755" gradientUnits="userSpaceOnUse">
<stop stop-color="#0058E5"/>
<stop offset="1" stop-color="#000BDE"/>
</linearGradient>
<linearGradient id="paint16_linear" x1="106.823" y1="43.5897" x2="182.834" y2="43.5897" gradientUnits="userSpaceOnUse">
<stop stop-color="#0072E7"/>
<stop offset="1" stop-color="#0025E0"/>
</linearGradient>
<linearGradient id="paint17_linear" x1="150.678" y1="87.5225" x2="168.524" y2="81.3295" gradientUnits="userSpaceOnUse">
<stop stop-color="#0072E7"/>
<stop offset="1" stop-color="#0025E0"/>
</linearGradient>
<linearGradient id="paint18_linear" x1="143.897" y1="100.226" x2="137.406" y2="116.477" gradientUnits="userSpaceOnUse">
<stop stop-color="#4352B5"/>
<stop offset="1" stop-color="#2A398A"/>
</linearGradient>
<linearGradient id="paint19_linear" x1="139.229" y1="89.9489" x2="142.314" y2="80.5741" gradientUnits="userSpaceOnUse">
<stop stop-color="#F54291"/>
<stop offset="1" stop-color="#FB7DB9"/>
</linearGradient>
<linearGradient id="paint20_linear" x1="141.744" y1="85.2316" x2="154.415" y2="77.6985" gradientUnits="userSpaceOnUse">
<stop stop-color="#F54291"/>
<stop offset="1" stop-color="#FB7DB9"/>
</linearGradient>
<linearGradient id="paint21_linear" x1="140.076" y1="74.4209" x2="135.656" y2="88.1225" gradientUnits="userSpaceOnUse">
<stop stop-color="#7A4800"/>
<stop offset="1" stop-color="#2E1900"/>
</linearGradient>
</defs>
</svg>
