<svg width="150" height="150" viewBox="0 0 150 150" fill="none" xmlns="http://www.w3.org/2000/svg">
<path d="M142.11 149.647C142.11 149.692 112.094 149.781 75.0649 149.781C38.016 149.736 8 149.692 8 149.647C8 149.603 38.016 149.514 75.0649 149.514C112.094 149.514 142.11 149.559 142.11 149.647Z" fill="#263238"/>
<path d="M122.748 76.1086H88.7319V110.125H122.748V76.1086Z" fill="#224D8C"/>
<path d="M98.5022 76.1104H64.4861V110.126H98.5022V76.1104Z" fill="#4A6FA6"/>
<path d="M122.749 80.1938C122.749 80.1938 117.332 83.9684 110.626 88.5868C103.921 93.2051 98.4585 96.8909 98.4141 96.8909C98.4141 96.8909 103.832 93.1163 110.537 88.4979C117.287 83.8796 122.705 80.1493 122.749 80.1938Z" fill="#CACAFF"/>
<path d="M122.482 88.0093C122.482 88.0093 117.064 91.7839 110.359 96.4023C103.653 101.021 98.1909 104.706 98.1465 104.706C98.1465 104.706 103.564 100.932 110.27 96.3135C117.02 91.6951 122.482 88.0093 122.482 88.0093Z" fill="#CACAFF"/>
<path d="M122.749 95.603C122.749 95.603 118.041 98.8891 112.224 102.886C106.407 106.882 101.655 110.124 101.655 110.08C101.655 110.08 106.362 106.794 112.18 102.797C117.997 98.8003 122.704 95.5586 122.749 95.603Z" fill="#CACAFF"/>
<path d="M115.51 76.1086C115.51 76.1086 111.647 78.8175 106.895 82.1036C102.099 85.3898 98.2358 88.0098 98.1914 88.0098C98.1914 88.0098 102.055 85.301 106.806 82.0148C111.602 78.7287 115.466 76.1086 115.51 76.1086Z" fill="#CACAFF"/>
<path d="M122.659 103.73C122.659 103.73 120.705 105.195 118.263 106.972C115.82 108.748 113.822 110.169 113.822 110.125C113.822 110.125 115.776 108.659 118.218 106.883C120.616 105.107 122.615 103.685 122.659 103.73Z" fill="#CACAFF"/>
<path d="M99.923 110.256H60.4004V149.778H99.923V110.256Z" fill="#365E99"/>
<path d="M84.2029 103C87.4659 103 89 100.757 89 98.3868C89 96.1949 87.6607 94.5127 85.9075 94.2324C87.4903 93.8756 88.6834 92.4483 88.6834 90.3328C88.6834 88.3448 87.2224 86 83.862 86H74V103H84.2029ZM82.7175 92.2699H78.9188V90.2819H82.7175C83.2289 90.2819 83.6916 90.6642 83.6916 91.2504C83.6916 91.8621 83.2289 92.2699 82.7175 92.2699ZM82.8636 98.7181H78.9188V96.5517H82.8636C83.5698 96.5517 84.0081 97.036 84.0081 97.6477C84.0081 98.2849 83.5698 98.7181 82.8636 98.7181Z" fill="white"/>
<path d="M90 140L83.4048 123H76.5952L70 140H76.1394L76.7828 138.012H83.2172L83.8606 140H90ZM81.7694 133.526H78.2306L80 128.046L81.7694 133.526Z" fill="white"/>
<path d="M123.948 110.124H99.9236V149.691H123.948V110.124Z" fill="#224D8C"/>
<path opacity="0.51" d="M124.024 110.124H100V149.691H124.024V110.124Z" fill="#1A3E73"/>
<path d="M123.726 112.388C123.726 112.388 118.441 116.163 111.913 120.737C105.386 125.311 100.057 128.996 100.057 128.996C100.057 128.996 105.341 125.266 111.869 120.648C118.397 116.074 123.726 112.388 123.726 112.388Z" fill="#CACAFF"/>
<path d="M123.904 119.892C123.904 119.892 118.619 123.667 112.091 128.241C105.563 132.815 100.234 136.501 100.234 136.501C100.234 136.501 105.519 132.771 112.047 128.152C118.575 123.578 123.904 119.892 123.904 119.892Z" fill="#CACAFF"/>
<path d="M123.681 127.708C123.681 127.708 118.396 131.482 111.868 136.056C105.341 140.63 100.012 144.316 100.012 144.316C100.012 144.316 105.296 140.586 111.824 135.968C118.352 131.394 123.681 127.663 123.681 127.708Z" fill="#CACAFF"/>
<path d="M123.503 135.257C123.503 135.257 118.929 138.499 113.245 142.496C107.561 146.448 102.942 149.69 102.942 149.645C102.942 149.645 107.516 146.403 113.2 142.407C118.84 138.41 123.458 135.213 123.503 135.257Z" fill="#CACAFF"/>
<path d="M113.911 110.256C113.911 110.256 113.867 110.301 113.778 110.345C113.645 110.434 113.512 110.523 113.378 110.656C112.979 110.922 112.49 111.278 111.868 111.722C110.581 112.654 108.849 113.853 106.939 115.186C105.03 116.518 103.298 117.717 101.966 118.649C101.344 119.049 100.855 119.404 100.456 119.671C100.278 119.76 100.145 119.848 100.056 119.937C99.9673 119.982 99.9229 120.026 99.9229 120.026C99.9229 120.026 99.9673 119.982 100.056 119.937C100.189 119.848 100.323 119.76 100.456 119.626C100.855 119.36 101.344 119.005 101.966 118.561C103.253 117.628 104.985 116.429 106.895 115.097C108.804 113.765 110.536 112.566 111.868 111.633C112.49 111.233 112.979 110.878 113.378 110.612C113.556 110.523 113.689 110.434 113.778 110.345C113.867 110.301 113.911 110.256 113.911 110.256Z" fill="#CACAFF"/>
<path d="M123.814 143.339C123.814 143.339 121.904 144.805 119.506 146.581C117.108 148.357 115.199 149.734 115.154 149.734C115.154 149.734 117.064 148.268 119.462 146.492C121.86 144.716 123.814 143.295 123.814 143.339Z" fill="#CACAFF"/>
<path d="M35.1891 147.295L35.1003 143.476L27.9507 143.61L28.0395 149.205H28.4836C30.4375 149.294 38.5196 149.471 39.8519 149.027C41.2729 148.539 35.1891 147.295 35.1891 147.295Z" fill="#87A1CC"/>
<g opacity="0.4">
<g opacity="0.4">
<g opacity="0.4">
<path opacity="0.4" d="M38.1644 148.007C38.1644 148.007 40.296 148.585 40.0295 148.94C39.7631 149.295 31.5921 149.428 27.9951 149.162V148.984L37.5427 148.896C37.5427 148.94 37.7648 148.052 38.1644 148.007Z" fill="white"/>
</g>
</g>
</g>
<path d="M27.9062 149.027C27.9062 149.027 27.9507 149.027 28.0395 149.027C28.1283 149.027 28.2615 149.027 28.3947 149.027C28.75 149.027 29.1941 149.027 29.6825 149.072C30.7927 149.072 32.3026 149.116 33.9901 149.072C35.6775 149.027 37.1874 148.983 38.2976 148.938C38.8305 148.894 39.2301 148.894 39.5854 148.85C39.7186 148.85 39.8518 148.85 39.9407 148.805C40.0295 148.805 40.0739 148.805 40.0739 148.805C40.0739 148.805 40.0295 148.805 39.9407 148.805C39.8518 148.805 39.7186 148.805 39.5854 148.805C39.2301 148.805 38.7861 148.85 38.2976 148.85C37.1874 148.894 35.6775 148.938 33.9901 148.983C32.3026 149.027 30.7927 149.027 29.6825 148.983C29.1497 148.983 28.75 148.983 28.3947 148.983C28.2615 148.983 28.1283 148.983 28.0395 148.983C27.9507 148.983 27.9062 149.027 27.9062 149.027Z" fill="#263238"/>
<path d="M37.5429 149.072C37.5873 149.072 37.5873 148.761 37.765 148.45C37.9426 148.139 38.209 147.962 38.209 147.962C38.209 147.962 37.8982 148.095 37.7206 148.406C37.4985 148.716 37.5429 149.072 37.5429 149.072Z" fill="#263238"/>
<path d="M35.4111 148.007C35.4111 148.007 35.5444 147.873 35.6332 147.74C35.722 147.563 35.8108 147.429 35.7664 147.429C35.7664 147.429 35.6332 147.563 35.5443 147.696C35.4555 147.873 35.4111 148.007 35.4111 148.007Z" fill="#263238"/>
<path d="M34.834 147.74C34.834 147.74 34.9672 147.696 35.1004 147.562C35.2336 147.429 35.3225 147.34 35.2781 147.34C35.2781 147.34 35.1448 147.385 35.0116 147.518C34.9228 147.607 34.834 147.696 34.834 147.74Z" fill="#263238"/>
<path d="M34.4341 147.029C34.4341 147.074 34.6117 147.074 34.7893 147.074C35.0114 147.074 35.1446 147.074 35.1446 147.029C35.1446 146.985 34.967 146.985 34.7893 146.985C34.6117 146.985 34.4341 147.029 34.4341 147.029Z" fill="#263238"/>
<path d="M34.3008 146.585C34.3008 146.585 34.4784 146.673 34.7005 146.718C34.9225 146.718 35.1445 146.673 35.1445 146.673C35.1445 146.629 34.9669 146.673 34.7005 146.629C34.5228 146.585 34.3452 146.54 34.3008 146.585Z" fill="#263238"/>
<path d="M35.6333 147.384C35.6333 147.384 35.8109 147.429 36.0774 147.384C36.2106 147.384 36.3882 147.34 36.5658 147.251C36.6547 147.207 36.7435 147.207 36.8323 147.118C36.8767 147.073 36.9211 147.029 36.9655 146.985C36.9655 146.896 36.9655 146.851 36.8767 146.807C36.4326 146.585 35.9886 146.851 35.8553 147.073C35.7665 147.207 35.7221 147.296 35.7221 147.384C35.7221 147.473 35.7221 147.518 35.7221 147.518C35.7221 147.518 35.7665 147.34 35.9442 147.118C36.033 147.029 36.1662 146.896 36.3438 146.851C36.5214 146.807 36.7435 146.763 36.8767 146.896C36.9655 146.94 36.9211 147.029 36.8323 147.073C36.7435 147.118 36.6547 147.162 36.5658 147.207C36.3882 147.251 36.2106 147.296 36.0774 147.34C35.8109 147.384 35.6333 147.384 35.6333 147.384Z" fill="#263238"/>
<path d="M35.7663 147.429C35.7663 147.429 35.8551 147.296 35.8107 147.118C35.8107 147.029 35.7663 146.896 35.6775 146.763C35.5887 146.674 35.4999 146.541 35.2778 146.541C35.189 146.541 35.1002 146.674 35.1446 146.763C35.1446 146.852 35.189 146.896 35.2334 146.985C35.3222 147.118 35.3666 147.207 35.4555 147.251C35.5887 147.34 35.7219 147.429 35.7663 147.429C35.7219 147.429 35.6331 147.34 35.4999 147.207C35.4555 147.118 35.3666 147.029 35.3222 146.94C35.2778 146.851 35.2334 146.674 35.3222 146.629C35.4555 146.629 35.5443 146.718 35.6331 146.807C35.7219 146.896 35.7663 147.029 35.7663 147.118C35.8107 147.296 35.7663 147.429 35.7663 147.429Z" fill="#263238"/>
<path d="M28.0396 147.029C28.0396 147.029 28.2616 146.984 28.5724 147.029C28.8833 147.073 29.3274 147.162 29.727 147.473C30.1267 147.784 30.3487 148.183 30.482 148.494C30.6152 148.805 30.6152 149.027 30.6152 148.983C30.6152 148.983 30.6152 148.938 30.6152 148.85C30.6152 148.761 30.5708 148.628 30.5264 148.45C30.4376 148.139 30.2155 147.695 29.7714 147.384C29.3718 147.073 28.8833 146.94 28.5724 146.94C28.3948 146.94 28.2616 146.94 28.1728 146.94C28.084 147.029 28.0396 147.029 28.0396 147.029Z" fill="#263238"/>
<path d="M28.7055 144.054C28.6611 144.054 28.6611 144.72 28.6611 145.519C28.6611 146.318 28.7055 146.984 28.7055 146.984C28.75 146.984 28.75 146.318 28.75 145.519C28.75 144.72 28.75 144.054 28.7055 144.054Z" fill="#263238"/>
<path d="M31.5037 148.36C31.5037 148.405 31.9477 148.449 32.5694 148.449C33.1467 148.449 33.6352 148.36 33.6352 148.36C33.6352 148.316 33.1467 148.36 32.5694 148.36C31.9477 148.36 31.5037 148.316 31.5037 148.36Z" fill="#263238"/>
<path d="M30.0818 148.362C30.0818 148.362 30.1262 148.451 30.1706 148.584C30.215 148.673 30.2594 148.806 30.2594 148.762C30.3038 148.762 30.3038 148.628 30.215 148.54C30.215 148.406 30.0818 148.362 30.0818 148.362Z" fill="#263238"/>
<path d="M29.5498 147.739C29.5498 147.739 29.5942 147.828 29.6386 147.916C29.7274 148.005 29.7718 148.05 29.8163 148.005C29.8163 148.005 29.7719 147.916 29.7274 147.828C29.6386 147.739 29.5498 147.694 29.5498 147.739Z" fill="#263238"/>
<path d="M28.7944 147.429C28.7944 147.473 28.8832 147.429 29.0165 147.473C29.1053 147.518 29.1941 147.562 29.2385 147.562C29.2385 147.562 29.1941 147.429 29.0609 147.384C28.8833 147.384 28.7944 147.429 28.7944 147.429Z" fill="#263238"/>
<path d="M28.2617 147.296C28.2617 147.34 28.3061 147.34 28.3505 147.384C28.3949 147.384 28.4838 147.384 28.4838 147.384C28.4838 147.34 28.4394 147.34 28.3949 147.296C28.3061 147.296 28.2617 147.296 28.2617 147.296Z" fill="#263238"/>
<g opacity="0.3">
<path opacity="0.3" d="M28.0395 146.852L35.1891 146.63L35.1447 145.786L27.9507 146.408L28.0395 146.852Z" fill="black"/>
</g>
<path d="M41.8052 146.495L43.0042 142.853L36.2543 140.544L34.4336 145.829L34.8333 146.006C36.654 146.761 44.2032 149.648 45.5799 149.692C47.1341 149.737 41.8052 146.495 41.8052 146.495Z" fill="#87A1CC"/>
<g opacity="0.4">
<g opacity="0.4">
<g opacity="0.4">
<path opacity="0.4" d="M44.3809 148.182C44.3809 148.182 46.2016 149.47 45.8463 149.692C45.491 149.958 37.7641 147.294 34.4336 145.828L34.478 145.695L43.4483 148.848C43.4927 148.848 43.9812 148.049 44.3809 148.182Z" fill="white"/>
</g>
</g>
</g>
<path d="M34.3892 145.65C34.3892 145.65 34.4336 145.65 34.5224 145.695C34.6112 145.739 34.7444 145.783 34.8332 145.828C35.1441 145.961 35.5882 146.094 36.0322 146.316C37.0536 146.716 38.4746 147.249 40.0733 147.782C41.672 148.315 43.093 148.803 44.1588 149.114C44.6473 149.247 45.0469 149.38 45.4022 149.469C45.5354 149.514 45.6242 149.514 45.7574 149.558C45.8463 149.558 45.8907 149.603 45.8907 149.603C45.8907 149.603 45.8463 149.603 45.7574 149.558C45.6686 149.514 45.5354 149.469 45.4022 149.469C45.0469 149.38 44.6473 149.247 44.1588 149.07C43.093 148.714 41.672 148.27 40.0733 147.737C38.4746 147.205 37.0536 146.672 36.0322 146.316C35.5438 146.139 35.1441 146.006 34.8332 145.872C34.7 145.828 34.6112 145.783 34.5224 145.739C34.4336 145.65 34.3892 145.65 34.3892 145.65Z" fill="#263238"/>
<path d="M43.4488 148.938C43.4932 148.938 43.582 148.671 43.8928 148.449C44.1593 148.227 44.4701 148.139 44.4701 148.139C44.4701 148.139 44.1593 148.139 43.8484 148.405C43.5376 148.627 43.4043 148.938 43.4488 148.938Z" fill="#263238"/>
<path d="M41.8057 147.25C41.8057 147.25 41.9389 147.205 42.1165 147.072C42.2497 146.939 42.383 146.85 42.383 146.806C42.383 146.806 42.2497 146.85 42.0721 146.983C41.8945 147.116 41.8057 147.25 41.8057 147.25Z" fill="#263238"/>
<path d="M41.3613 146.761C41.3613 146.761 41.4945 146.761 41.6722 146.673C41.8054 146.628 41.9386 146.539 41.9386 146.495C41.9386 146.495 41.8054 146.495 41.6278 146.584C41.4501 146.673 41.3613 146.761 41.3613 146.761Z" fill="#263238"/>
<path d="M41.228 146.007C41.228 146.051 41.3613 146.096 41.5833 146.184C41.7609 146.273 41.9386 146.273 41.9386 146.273C41.9386 146.229 41.8053 146.184 41.5833 146.096C41.4057 146.051 41.228 146.007 41.228 146.007Z" fill="#263238"/>
<path d="M41.2725 145.519C41.2725 145.519 41.4057 145.652 41.6277 145.785C41.8498 145.874 42.0718 145.874 42.0718 145.874C42.0718 145.829 41.8941 145.785 41.6721 145.696C41.4501 145.607 41.2725 145.519 41.2725 145.519Z" fill="#263238"/>
<path d="M42.2495 146.761C42.2495 146.761 42.4271 146.849 42.6936 146.894C42.8268 146.938 43.0044 146.938 43.1821 146.938C43.2709 146.938 43.3597 146.938 43.4929 146.938C43.5373 146.938 43.6261 146.894 43.6261 146.849C43.6705 146.805 43.6705 146.716 43.6261 146.672C43.2709 146.317 42.7824 146.405 42.5603 146.583C42.4271 146.672 42.3827 146.761 42.3383 146.805C42.2939 146.894 42.2939 146.938 42.2939 146.938C42.2939 146.938 42.3827 146.761 42.6048 146.627C42.738 146.539 42.8712 146.494 43.0488 146.494C43.2265 146.494 43.4485 146.583 43.5373 146.716C43.5817 146.805 43.5373 146.849 43.4485 146.894C43.3597 146.894 43.2709 146.894 43.1821 146.894C43.0044 146.894 42.8268 146.894 42.6936 146.849C42.3827 146.805 42.2495 146.716 42.2495 146.761Z" fill="#263238"/>
<path d="M42.3382 146.806C42.3382 146.806 42.427 146.717 42.4714 146.54C42.5158 146.451 42.5158 146.317 42.4714 146.184C42.427 146.051 42.3826 145.873 42.2049 145.829C42.1161 145.829 42.0273 145.918 41.9829 145.962C41.9829 146.051 41.9829 146.14 41.9829 146.184C42.0273 146.317 42.0717 146.406 42.1161 146.54C42.2049 146.717 42.2938 146.806 42.3382 146.806C42.2938 146.762 42.2494 146.673 42.1606 146.495C42.1161 146.406 42.0717 146.317 42.0717 146.184C42.0273 146.051 42.0717 145.873 42.1606 145.918C42.2938 145.962 42.3382 146.095 42.3826 146.184C42.427 146.317 42.427 146.406 42.427 146.495C42.3826 146.717 42.3382 146.806 42.3382 146.806Z" fill="#263238"/>
<path d="M35.1885 143.831C35.1885 143.831 35.4105 143.876 35.6769 144.009C35.9878 144.142 36.3431 144.408 36.6095 144.853C36.876 145.252 36.9648 145.741 36.9648 146.052C36.9648 146.362 36.9204 146.584 36.9204 146.584C36.9204 146.584 36.9648 146.54 36.9648 146.451C37.0092 146.362 37.0092 146.229 37.0092 146.052C37.0092 145.741 36.9648 145.252 36.6539 144.808C36.3875 144.364 35.9878 144.098 35.6769 143.964C35.5437 143.92 35.4105 143.876 35.3217 143.831C35.2329 143.831 35.1885 143.831 35.1885 143.831Z" fill="#263238"/>
<path d="M36.8315 141.255C36.7871 141.255 36.5651 141.877 36.2986 142.632C36.0322 143.387 35.8102 144.008 35.8546 144.053C35.899 144.053 36.121 143.431 36.3875 142.676C36.6539 141.921 36.8759 141.255 36.8315 141.255Z" fill="#263238"/>
<path d="M37.9866 146.273C37.9866 146.273 38.3863 146.495 38.9191 146.717C39.452 146.895 39.9405 146.984 39.9405 146.984C39.9405 146.939 39.4964 146.85 38.9635 146.628C38.4307 146.406 37.9866 146.229 37.9866 146.273Z" fill="#263238"/>
<path d="M36.6536 145.784C36.6536 145.784 36.6536 145.873 36.6536 146.006C36.6536 146.139 36.6536 146.228 36.698 146.228C36.698 146.228 36.7868 146.139 36.7424 146.006C36.7424 145.873 36.698 145.784 36.6536 145.784Z" fill="#263238"/>
<path d="M36.3875 144.984C36.3875 144.984 36.3874 145.073 36.4318 145.162C36.4763 145.251 36.5207 145.34 36.5651 145.295C36.5651 145.295 36.5651 145.206 36.5207 145.117C36.4319 145.073 36.3875 144.984 36.3875 144.984Z" fill="#263238"/>
<path d="M35.7656 144.452C35.7656 144.497 35.8545 144.497 35.9433 144.585C36.0321 144.674 36.0765 144.719 36.1209 144.719C36.1653 144.719 36.1209 144.585 36.0321 144.497C35.8545 144.452 35.7656 144.452 35.7656 144.452Z" fill="#263238"/>
<path d="M35.2773 144.186C35.2773 144.186 35.2773 144.23 35.3217 144.274C35.3661 144.319 35.4105 144.319 35.455 144.319C35.455 144.319 35.455 144.274 35.4106 144.23C35.3662 144.185 35.3218 144.141 35.2773 144.186Z" fill="#263238"/>
<g opacity="0.3">
<path opacity="0.3" d="M35.2329 143.653L42.0273 145.874L42.2937 145.03L35.3217 143.209L35.2329 143.653Z" fill="black"/>
</g>
<path d="M46.9122 75.7997L38.5192 76.1549L25.5967 75.7997L27.0621 146.541L37.4534 146.185C37.4534 146.185 37.4534 145.386 37.4534 144.009L42.96 145.43C42.96 145.43 53.3069 124.159 55.5273 115.1C57.3924 107.595 46.9122 75.7997 46.9122 75.7997ZM37.4534 133.263C37.2758 116.921 37.9864 89.1663 38.2528 85.7469C38.2528 85.7469 44.6031 110.215 44.6919 112.125C44.6919 113.28 40.2067 124.559 37.4534 133.263Z" fill="#263238"/>
<path d="M37.3642 128.601C37.3642 128.601 37.4086 128.867 37.4086 129.267C37.4086 129.756 37.4086 130.377 37.453 131.132C37.4974 132.731 37.4974 134.907 37.4974 137.305C37.4974 139.703 37.4974 141.879 37.4974 143.477C37.4974 144.232 37.4974 144.854 37.453 145.343C37.453 145.787 37.4086 146.009 37.4086 146.009C37.4086 146.009 37.3642 145.742 37.3642 145.343C37.3642 144.854 37.3642 144.232 37.3198 143.477C37.2754 141.879 37.2754 139.703 37.2754 137.305C37.2754 134.907 37.2754 132.731 37.2754 131.132C37.2754 130.377 37.2754 129.756 37.3198 129.267C37.3642 128.867 37.3642 128.601 37.3642 128.601Z" fill="#455A64"/>
<path d="M32.3908 76.7771C32.3908 76.7771 32.3908 76.9103 32.3908 77.1324C32.3908 77.3544 32.302 77.7097 32.1688 78.1093C31.9023 78.9087 31.2806 79.9744 30.1705 80.685C29.0603 81.3955 27.8169 81.4843 26.9731 81.3511C26.5734 81.3067 26.2182 81.1734 25.9961 81.129C25.7741 81.0402 25.6853 80.9958 25.6853 80.9514C25.6853 80.907 26.1738 81.129 26.9731 81.2178C27.7724 81.3067 28.9715 81.1734 30.0372 80.5073C31.103 79.8412 31.7247 78.8198 31.9911 78.0649C32.3464 77.31 32.3464 76.7771 32.3908 76.7771Z" fill="#455A64"/>
<path d="M39.1411 76.865C39.1411 76.865 39.1855 76.9982 39.1855 77.2202C39.1855 77.4423 39.2299 77.7975 39.2299 78.2416C39.2743 79.0854 39.2743 80.2844 39.2743 81.5722C39.2743 82.2383 39.2743 82.86 39.2743 83.3929C39.2743 83.9702 39.1855 84.5031 38.9191 84.8583C38.6526 85.2136 38.2974 85.3912 38.0753 85.4356C37.8089 85.48 37.6757 85.3912 37.7201 85.3912C37.7201 85.3912 37.8533 85.4356 38.0753 85.3468C38.2974 85.3024 38.6082 85.1248 38.8303 84.7695C39.0523 84.4142 39.0967 83.9258 39.0967 83.3485C39.0967 82.7712 39.0967 82.1495 39.0967 81.5278C39.0967 80.24 39.0967 79.041 39.0967 78.1972C39.0967 77.7531 39.0967 77.4423 39.1411 77.1758C39.1411 76.9982 39.1411 76.865 39.1411 76.865Z" fill="#455A64"/>
<path d="M47.7114 81.2614C47.7114 81.2614 47.6226 81.2614 47.4449 81.2614C47.2673 81.2614 47.0009 81.217 46.69 81.1281C46.0683 80.9949 45.1802 80.6397 44.3809 80.018C43.5815 79.3963 43.0042 78.6857 42.6934 78.1084C42.5157 77.842 42.4269 77.5755 42.3825 77.3979C42.3381 77.2203 42.2937 77.1315 42.2937 77.1315C42.3381 77.1315 42.4713 77.4867 42.8266 78.0196C43.1819 78.5525 43.7591 79.263 44.5141 79.8403C45.3134 80.4176 46.1127 80.7729 46.7344 80.9505C47.3117 81.2169 47.7114 81.2614 47.7114 81.2614Z" fill="#455A64"/>
<path d="M37.2761 77.5764C37.2761 77.6208 37.0541 77.6652 36.9209 77.9761C36.8765 78.1093 36.8321 78.3313 36.9209 78.5089C37.0097 78.6866 37.2317 78.7754 37.4982 78.731C37.7202 78.6866 37.9422 78.5089 37.9422 78.3313C37.9866 78.1537 37.8978 77.9316 37.7646 77.8428C37.5426 77.5764 37.3205 77.6208 37.2761 77.5764C37.2761 77.5764 37.3205 77.532 37.4537 77.532C37.5426 77.532 37.7202 77.5764 37.8534 77.7096C37.9866 77.8428 38.1199 78.0649 38.1199 78.3757C38.0754 78.6866 37.809 78.9086 37.4982 78.953C37.1873 78.9974 36.832 78.8642 36.7432 78.5978C36.61 78.3313 36.6988 78.0649 36.7876 77.8872C36.8764 77.7096 37.0097 77.6208 37.1429 77.5764C37.2317 77.5764 37.2761 77.5764 37.2761 77.5764Z" fill="#455A64"/>
<path d="M25.0641 77.8864C24.7533 75.2219 25.1974 65.0971 25.1974 65.0971C24.8421 60.2566 23.199 55.0166 22.9326 51.5084C21.9556 39.6516 31.2812 40.0069 31.2812 40.0069L34.3009 39.6516C37.4094 41.9164 40.6511 43.3818 41.184 46.7124L47.7563 76.7762L25.0641 77.8864Z" fill="#455A64"/>
<path d="M26.7957 40.7182C26.7957 40.7626 27.2841 40.807 28.0835 40.8514C28.9716 40.8958 30.0374 40.9847 31.2364 41.0291C32.4798 41.1179 33.59 41.2067 34.3893 41.2511C35.1887 41.3399 35.6771 41.3843 35.6771 41.3399C35.6771 41.2955 35.1887 41.1623 34.3893 41.0735C33.59 40.9402 32.4798 40.8514 31.2364 40.7626C29.993 40.6738 28.8828 40.6738 28.0835 40.6294C27.2841 40.6738 26.7957 40.6738 26.7957 40.7182Z" fill="#263238"/>
<g opacity="0.2">
<g opacity="0.2">
<g opacity="0.2">
<path opacity="0.2" d="M26.0852 52.9303L39.363 63.0552L37.942 55.9056L26.0852 52.9303Z" fill="black"/>
</g>
</g>
</g>
<path d="M47.2231 74.5122C47.2231 74.5566 42.2495 74.823 36.0769 75.0007C29.9043 75.2227 24.9306 75.3559 24.8862 75.2671C24.8862 75.2227 29.8599 74.9563 36.0325 74.7786C42.2051 74.5566 47.1787 74.4234 47.2231 74.5122Z" fill="#FAFAFA"/>
<path d="M46.9567 73.4018C46.9567 73.4463 42.0274 73.7127 35.8992 73.8903C29.771 74.1124 24.8418 74.2456 24.8418 74.1568C24.8418 74.1124 29.771 73.8459 35.8992 73.6683C41.983 73.4462 46.9567 73.313 46.9567 73.4018Z" fill="#FAFAFA"/>
<path d="M33.0124 22.9558C33.6785 22.0232 33.9449 20.8686 33.7229 19.7585C33.5009 18.6483 32.7459 17.6269 31.6801 17.2272C30.6588 16.7832 29.3266 17.0052 28.5272 17.7601C27.8167 18.4706 27.4614 19.5364 26.5289 19.9361C25.6852 20.2913 24.5306 19.9361 23.9089 20.6022C23.5536 21.0019 23.5092 21.5792 23.1983 21.9788C22.7987 22.5117 22.0881 22.7338 21.5553 23.089C20.8003 23.6219 20.3563 24.5989 20.4451 25.5758C20.5783 26.5972 21.2444 27.4409 21.8217 28.2403C22.399 29.084 22.9763 30.0166 22.7987 31.0379" fill="#263238"/>
<path d="M27.1072 41.6063L21.4231 26.4634L21.7783 25.9749C24.2208 22.5999 25.331 20.7348 29.4608 21.2677C31.4148 21.6229 33.0134 22.9552 33.6795 24.8203C34.5233 26.9962 35.5447 29.8827 36.0775 31.659C36.9657 34.8564 33.946 36.2774 33.946 36.2774L35.1894 41.3842L27.1072 41.6063Z" fill="#FFBE9D"/>
<path d="M33.2806 26.9971C33.0585 26.8639 32.9253 26.5974 33.0585 26.3754C33.1917 26.1534 33.4582 26.0202 33.6802 26.1534C33.9022 26.2866 34.0355 26.553 33.9022 26.7751C33.8134 27.0415 33.547 27.1303 33.2806 26.9971Z" fill="#263238"/>
<path d="M33.9022 25.9754C33.8578 26.0642 33.5026 25.8866 33.0585 26.0198C32.6144 26.153 32.348 26.4639 32.3036 26.4195C32.2591 26.4195 32.3036 26.2863 32.3924 26.153C32.4812 26.0198 32.7032 25.8422 32.9697 25.7534C33.2361 25.6646 33.5025 25.709 33.6802 25.7978C33.8578 25.8422 33.9466 25.931 33.9022 25.9754Z" fill="#263238"/>
<path d="M29.1057 27.7959C29.3722 27.8847 29.5054 28.1511 29.461 28.3732C29.3722 28.6396 29.1057 28.7728 28.8837 28.7284C28.6172 28.6396 28.484 28.3732 28.5284 28.1511C28.5728 27.8847 28.8393 27.7515 29.1057 27.7959Z" fill="#263238"/>
<path d="M29.3722 27.6628C29.3278 27.7516 28.9725 27.574 28.5285 27.7072C28.0844 27.8404 27.8179 28.1513 27.7735 28.1069C27.7291 28.1069 27.7735 27.9736 27.8623 27.8404C27.9512 27.7072 28.1732 27.5296 28.4396 27.4407C28.7061 27.3519 28.9725 27.3963 29.1502 27.4852C29.3278 27.5296 29.4166 27.6184 29.3722 27.6628Z" fill="#263238"/>
<path d="M32.1702 30.904C32.1702 30.8596 32.3923 30.7264 32.8364 30.5488C32.9696 30.5044 33.014 30.46 33.014 30.3711C33.014 30.2823 32.9252 30.1935 32.8364 30.0603C32.6587 29.7938 32.4367 29.5274 32.2146 29.261C31.3709 28.1508 30.7048 27.1738 30.7936 27.1294C30.838 27.085 31.5929 27.9731 32.4367 29.0833C32.6587 29.3498 32.8363 29.6162 33.014 29.8827C33.1028 30.0159 33.236 30.1491 33.236 30.3267C33.236 30.4155 33.1472 30.5044 33.1028 30.5488C33.014 30.5932 32.9696 30.5932 32.9252 30.6376C32.4367 30.904 32.1702 30.9484 32.1702 30.904Z" fill="#263238"/>
<path d="M33.9903 36.2787C33.9903 36.2787 32.0363 36.9892 29.5051 36.2787C29.5051 36.2787 31.1038 38.3214 34.2123 37.078L33.9903 36.2787Z" fill="#EB996E"/>
<path d="M32.1249 25.5755C32.3025 25.7531 32.569 25.7087 32.8354 25.6199C33.1019 25.4867 33.3239 25.3091 33.3239 25.087C33.3239 24.865 32.9243 24.6874 32.5246 24.865C32.1249 25.0426 31.9917 25.3979 32.1249 25.5755Z" fill="#263238"/>
<path d="M27.7289 27.0853C27.9065 27.2185 28.2173 27.1297 28.5282 26.9964C28.839 26.8632 29.1055 26.7744 29.1499 26.508C29.1499 26.4191 29.1055 26.2859 28.9278 26.1971C28.7502 26.1083 28.4838 26.1083 28.2173 26.1971C27.9509 26.2859 27.7733 26.4635 27.6844 26.6412C27.64 26.9076 27.64 27.0408 27.7289 27.0853Z" fill="#263238"/>
<path d="M30.3045 31.4375C30.2157 31.4819 30.4821 31.9704 31.1038 32.1924C31.7255 32.4589 32.2584 32.2368 32.214 32.1924C32.214 32.1036 31.7255 32.148 31.1926 31.9704C30.7042 31.7484 30.3933 31.3931 30.3045 31.4375Z" fill="#263238"/>
<path d="M33.013 22.9546C32.1693 23.8871 30.393 24.198 29.194 23.9315C28.3502 23.7539 27.4621 23.221 26.6184 23.5319C25.8634 23.8427 25.597 24.5088 25.5526 25.3526C25.5526 26.1075 24.8421 26.9512 23.7763 26.9512C24.2648 28.5055 24.7533 29.6157 24.62 31.1699C24.5756 31.4364 24.2648 31.7472 24.1315 31.9693C23.9539 32.1913 23.6431 32.3245 23.421 32.2357C23.1546 32.1469 23.0658 31.8361 22.9769 31.5696C22.5329 30.0153 21.8224 28.4167 21.3783 26.9068C21.2007 26.3295 21.2895 25.7966 21.4227 25.1749C21.5559 24.5088 22.0888 24.0203 22.5773 23.5319C23.5542 22.5993 24.5312 21.6668 25.7302 21.0006C26.8848 20.3345 28.3058 19.9793 29.5936 20.2457C30.9259 20.5122 32.5689 21.2671 32.791 22.5993" fill="#263238"/>
<path d="M23.6875 30.1053C23.6431 30.1053 21.2895 30.2386 22.0444 32.4145C22.7106 34.2796 24.6645 33.3471 24.6645 33.2583C24.6201 33.2139 23.6875 30.1053 23.6875 30.1053Z" fill="#FFBE9D"/>
<path d="M23.6877 32.5912C23.6877 32.5912 23.6433 32.6356 23.5989 32.6801C23.5545 32.7245 23.4657 32.7689 23.3769 32.7689C23.1548 32.7689 22.9328 32.458 22.7996 32.1472C22.7552 31.9695 22.7552 31.7919 22.7552 31.6587C22.7996 31.5255 22.844 31.3922 22.9328 31.3478C23.0216 31.3034 23.1104 31.3478 23.1548 31.3922C23.1993 31.4366 23.1993 31.4811 23.1993 31.4811C23.1993 31.4811 23.2437 31.4366 23.1993 31.3478C23.1993 31.3034 23.1548 31.259 23.1104 31.259C23.066 31.2146 22.9772 31.2146 22.9328 31.259C22.7996 31.3034 22.7108 31.4811 22.6664 31.6587C22.622 31.8363 22.622 32.0139 22.6664 32.1916C22.7552 32.5468 23.066 32.8577 23.3325 32.9021C23.4657 32.9021 23.5545 32.8133 23.5989 32.7689C23.6877 32.6356 23.6877 32.5912 23.6877 32.5912Z" fill="#EB996E"/>
<path d="M86.8797 46.4018L88.7004 46.2241C89.7662 46.0021 91.3205 45.558 92.1198 44.8919C92.5639 44.5366 92.8303 44.2258 92.7415 43.8705C92.5638 43.2044 91.9421 43.3376 91.9421 43.3376C91.9421 43.3376 93.0523 43.0712 92.6971 42.2719C92.475 41.739 91.6313 42.0054 91.6313 42.0054C91.6313 42.0054 93.0079 41.3393 92.8303 40.7176C92.6971 40.2291 92.2974 40.2291 92.2974 40.2291C92.9635 39.6962 92.9191 39.341 92.6971 39.0745C92.3862 38.7193 91.8089 38.8081 91.3649 38.9857L89.855 39.563C88.9224 39.9183 88.2563 40.4956 89.1001 38.9413C89.9438 37.4315 89.9882 35.9216 89.7662 35.5219C89.4998 35.1223 88.8336 35.2999 88.7892 35.8772C88.7448 36.3213 88.4784 37.0318 88.2563 37.5647C88.0787 38.0088 87.8123 38.4084 87.5014 38.7637C87.1461 39.1634 86.7909 39.4742 86.48 39.7406L84.9258 41.5169L86.8797 46.4018Z" fill="#FFBE9D"/>
<path d="M40.6272 69.9487L71.4272 64.3322L65.8107 33.5321L35.0107 39.1486L40.6272 69.9487Z" fill="#20467D"/>
<path opacity="0.4" d="M40.6165 70.4163L71.4165 64.7998L65.8 33.9998L34.9999 39.6163L40.6165 70.4163Z" fill="#224D8C"/>
<path d="M35.6777 42.8491C35.6777 42.8047 41.2287 45.2915 48.0674 48.3556C54.9062 51.4197 60.4571 53.9065 60.4571 53.9509C60.4571 53.9954 54.9062 51.5085 48.0674 48.4444C41.1843 45.3803 35.6777 42.8935 35.6777 42.8491Z" fill="#CACAFF"/>
<path d="M37.1875 49.9103C37.1875 49.8658 42.7384 52.3527 49.5772 55.4168C56.4159 58.4809 61.9668 60.9677 61.9668 61.0121C61.9668 61.0565 56.4159 58.5697 49.5772 55.5056C42.7384 52.4415 37.1875 49.9547 37.1875 49.9103Z" fill="#CACAFF"/>
<path d="M38.2085 56.7936C38.2085 56.7492 43.0489 58.9252 48.9551 61.5452C54.9057 64.2097 59.7017 66.3856 59.6573 66.3856C59.6573 66.43 54.8169 64.2541 48.9107 61.634C43.0045 59.014 38.2085 56.838 38.2085 56.7936Z" fill="#CACAFF"/>
<path d="M41.5398 38.0098C41.5398 37.9654 45.4921 39.7417 50.3769 41.9177C55.2617 44.0937 59.1695 45.87 59.1695 45.9144C59.1695 45.9588 55.2173 44.1825 50.3325 42.0065C45.492 39.7861 41.5398 38.0098 41.5398 38.0098Z" fill="#CACAFF"/>
<path d="M39.6301 64.165C39.6301 64.1206 41.6729 65.0976 44.2041 66.2966C46.6909 67.4956 48.7336 68.4725 48.7336 68.517C48.7336 68.5614 46.6909 67.5844 44.1597 66.3854C41.6729 65.1864 39.6301 64.165 39.6301 64.165Z" fill="#CACAFF"/>
<path d="M62.5452 65.9886L93.3452 60.3721L87.7287 29.572L56.9287 35.1885L62.5452 65.9886Z" fill="#365E99"/>
<path d="M77.6403 55.0135C81.7532 54.2723 83.3817 51.3252 83.9094 49.0021L79.4705 47.7992C79.2982 49.132 78.2727 50.4434 76.8626 50.6975C74.5829 51.1083 72.7319 49.5892 72.3256 47.3343C71.9192 45.0793 73.1235 43.0097 75.4032 42.5989C76.8134 42.3448 78.2321 43.2157 78.8588 44.4046L82.5943 41.7037C81.2522 39.6423 78.7384 37.5418 74.6255 38.2829C69.7136 39.168 66.6076 43.2075 67.5076 48.2024C68.4033 53.1731 72.7284 55.8986 77.6403 55.0135Z" fill="white"/>
<path d="M91.4538 39.0757C90.8321 39.2977 90.2104 39.5642 89.5887 39.7862C89.3667 39.875 89.1446 39.9638 88.967 40.1415C88.7894 40.3191 88.7006 40.5855 88.745 40.8076C88.8338 41.0296 89.1002 41.1628 89.3223 41.1628C89.5887 41.1628 89.8107 41.074 90.0328 41.0296C90.6989 40.8076 91.365 40.5855 92.0311 40.3191" fill="#FFBE9D"/>
<path d="M91.1872 40.6302C90.5211 40.8967 89.855 41.1631 89.2333 41.3852C89.0113 41.474 88.7448 41.5628 88.5672 41.7404C88.3896 41.9181 88.2563 42.1845 88.3452 42.451C88.434 42.7174 88.7004 42.8506 88.9669 42.8506C89.2333 42.8506 89.4997 42.7618 89.7218 42.673C90.4323 42.4065 91.1428 42.1845 91.8533 41.9181" fill="#FFBE9D"/>
<path d="M91.187 42.1399C90.6541 42.3619 90.0768 42.584 89.5439 42.806C89.3219 42.8948 89.1442 42.9836 88.9666 43.1169C88.789 43.2501 88.7002 43.5165 88.789 43.6942C88.8778 43.9162 89.0999 44.005 89.3219 44.0494C89.5439 44.0494 89.7659 44.005 89.9436 43.9162C90.5653 43.6942 91.1426 43.5165 91.7643 43.2945" fill="#FFBE9D"/>
<path d="M91.8528 43.2502C91.3199 43.4723 90.7426 43.6943 90.2097 43.9164C89.9877 44.0052 89.81 44.094 89.6324 44.2272C89.4548 44.3604 89.366 44.6269 89.4548 44.8045C89.5436 45.0265 89.7656 45.1154 89.9877 45.1598C90.2097 45.1598 90.4317 45.1154 90.6093 45.0265C91.2311 44.8045 91.8084 44.6269 92.4301 44.4048" fill="#FFBE9D"/>
<path d="M92.431 40.1846C92.431 40.229 91.8537 40.4954 91.0988 40.7619C90.3439 41.0283 89.7221 41.206 89.6777 41.1171C89.6777 41.0727 90.255 40.8063 91.01 40.5398C91.7649 40.3178 92.3866 40.1402 92.431 40.1846Z" fill="#EB996E"/>
<path d="M91.8528 41.9628C91.8972 42.0072 91.3643 42.3181 90.6538 42.5401C89.9433 42.7621 89.366 42.8509 89.366 42.8065C89.366 42.7621 89.8989 42.5401 90.565 42.3181C91.2755 42.0516 91.8528 41.874 91.8528 41.9628Z" fill="#EB996E"/>
<path d="M92.0746 43.2942C92.0746 43.3386 91.6749 43.5163 91.1864 43.6939C90.6979 43.8715 90.2539 43.9159 90.2095 43.8715C90.2095 43.8271 90.6091 43.6495 91.0976 43.4719C91.6305 43.2942 92.0302 43.2054 92.0746 43.2942Z" fill="#EB996E"/>
<path d="M74.0456 36.1447C73.3795 35.3897 70.0934 38.0098 69.7825 38.1874C69.5161 38.365 69.2052 37.9654 69.4717 37.7877C69.8713 37.5657 74.0012 34.9013 73.3351 34.1463C72.9799 33.7467 72.2693 34.4572 72.2693 34.4572C72.2693 34.4572 68.5835 37.2104 68.3171 36.8552C68.0062 36.4999 70.1378 34.8124 70.8483 34.2796C71.6032 33.7467 71.6476 33.2138 71.1591 33.0806C70.8039 32.9917 68.4947 34.5016 67.7842 35.0345C67.0737 35.5674 65.0753 37.0328 65.475 35.523C65.8303 34.0131 65.5638 32.6809 65.253 32.37C64.9421 32.0592 64.4092 32.4145 64.498 32.9029C64.5868 33.3026 64.498 33.9687 64.4092 34.5016C64.3648 34.9013 64.2316 35.3453 64.0096 35.7006C63.9207 35.8782 63.8319 36.0559 63.6987 36.2335C61.0787 37.6545 46.3798 45.6479 44.8256 46.4028C43.1381 47.2021 30.0823 43.6495 30.0823 43.6495L28.0396 51.8205C28.0396 51.8205 41.0065 56.0392 44.3371 56.2612C47.0459 56.4389 61.0342 46.2252 66.0967 42.4505C68.0062 41.6956 70.7151 40.4966 71.8697 39.8305C73.9124 38.6759 73.8236 38.4983 73.646 38.2762C73.2019 37.6989 70.0046 40.1413 70.3598 39.2088C70.6707 38.365 74.5341 36.722 74.0456 36.1447Z" fill="#FFBE9D"/>
<path d="M27.4617 53.2858L39.0965 57.3268L41.3613 46.2694C41.3613 46.2694 36.7873 44.6263 32.4354 43.2941C29.2824 42.3615 24.4864 43.2941 24.0868 46.5802C22.799 50.1328 25.1081 52.3976 27.4617 53.2858Z" fill="#455A64"/>
<path d="M38.3416 57.0148C38.386 57.0148 38.5193 56.3931 38.6969 55.4161C38.9189 54.4391 39.1854 53.0625 39.585 51.5527C39.9403 50.0428 40.2955 48.6662 40.4732 47.6892C40.6952 46.7123 40.784 46.0461 40.7396 46.0461C40.6952 46.0461 40.5176 46.6234 40.2511 47.6448C39.9847 48.6218 39.6294 49.9984 39.2742 51.5083C38.9189 53.0181 38.6525 54.3947 38.4748 55.4161C38.3416 56.3931 38.2972 57.0148 38.3416 57.0148Z" fill="#263238"/>
<path d="M24.9306 51.8196C24.9306 51.8196 24.753 51.5532 24.4866 51.1091C24.2201 50.6206 23.9093 49.9101 23.8205 48.9775C23.7316 48.045 23.8205 46.846 24.4422 45.7802C25.0195 44.67 26.0852 43.693 27.4619 43.2046C28.128 42.9381 28.8385 42.8493 29.549 42.8493C30.2151 42.8493 30.8812 42.9381 31.5029 43.0269C32.7463 43.2934 33.8121 43.693 34.7447 44.0039C35.6328 44.3147 36.3878 44.5812 36.9207 44.7588C37.1871 44.8476 37.3647 44.892 37.4979 44.9364C37.6312 44.9809 37.72 44.9809 37.72 44.9809C37.72 44.9809 37.4535 44.8476 36.9207 44.67C36.3878 44.448 35.6772 44.1815 34.7891 43.8707C33.9009 43.5154 32.7907 43.1157 31.5473 42.8493C30.3039 42.5829 28.8385 42.494 27.373 42.9825C25.952 43.5154 24.8418 44.5812 24.2645 45.6914C23.6428 46.846 23.554 48.0894 23.6872 49.0219C23.8205 49.9989 24.1757 50.7094 24.4422 51.1979C24.5754 51.4199 24.7086 51.5976 24.7974 51.6864C24.8418 51.7308 24.8862 51.8196 24.9306 51.8196Z" fill="#263238"/>
<path d="M39.807 45.6917C39.8514 45.6917 39.2297 48.1341 38.3416 51.0649C37.4978 53.9958 36.7429 56.3938 36.6541 56.3494C36.6097 56.3494 37.2314 53.907 38.1195 50.9761C38.9633 48.0452 39.7182 45.6917 39.807 45.6917Z" fill="#FAFAFA"/>
<path d="M38.652 45.3801C38.6964 45.3801 38.0303 47.7781 37.1422 50.6646C36.2541 53.5511 35.4547 55.9047 35.4103 55.8603C35.3659 55.8603 36.032 53.4623 36.9202 50.5758C37.8083 47.6893 38.6076 45.3801 38.652 45.3801Z" fill="#FAFAFA"/>
</svg>
