<svg width="59" height="36" viewBox="0 0 59 36" fill="none" xmlns="http://www.w3.org/2000/svg">
<rect y="12" width="47" height="24" rx="3" fill="#FF8C00"/>
<path d="M17.6435 18.8182H15.5007V25.2216H15.4112L11.0163 18.8182H9.12713V29H11.2798V22.5916H11.3544L15.7841 29H17.6435V18.8182ZM22.8624 29.1491C24.7516 29.1491 26.0243 28.2294 26.3226 26.8125L24.3638 26.6832C24.15 27.2649 23.6032 27.5682 22.8972 27.5682C21.8382 27.5682 21.1671 26.8672 21.1671 25.7287V25.7237H26.3674V25.142C26.3674 22.5469 24.7963 21.2642 22.7779 21.2642C20.5307 21.2642 19.074 22.8601 19.074 25.2166C19.074 27.6378 20.5108 29.1491 22.8624 29.1491ZM21.1671 24.4112C21.2118 23.5412 21.873 22.8452 22.8127 22.8452C23.7324 22.8452 24.3688 23.5014 24.3738 24.4112H21.1671ZM29.2012 29H31.4384L32.7509 24.1974H32.8453L34.1578 29H36.4L38.4732 21.3636H36.3354L35.1721 26.4645H35.1074L33.8546 21.3636H31.7516L30.5186 26.4943H30.449L29.2658 21.3636H27.123L29.2012 29Z" fill="white"/>
<path d="M44 1L44 7.85714" stroke="#FFAE00" stroke-width="2" stroke-linecap="round"/>
<path d="M50.8571 14.7144H57.7143" stroke="#FFAE00" stroke-width="2" stroke-linecap="round"/>
<path d="M49.1429 9.57153L53.9916 4.7228" stroke="#FFAE00" stroke-width="2" stroke-linecap="round"/>
</svg>
